<?xml version="1.0" standalone="no"?>
<!DOCTYPE svg PUBLIC "-//W3C//DTD SVG 1.1//EN" "http://www.w3.org/Graphics/SVG/1.1/DTD/svg11.dtd" >
<svg xmlns="http://www.w3.org/2000/svg">
<metadata></metadata>
<defs>
<font id="sansumiregular" horiz-adv-x="1024" >
<font-face units-per-em="2048" ascent="1638" descent="-410" />
<missing-glyph horiz-adv-x="544" />
<glyph horiz-adv-x="0" />
<glyph horiz-adv-x="682" />
<glyph d="M172 1499q68 -106 143.5 -172.5t196.5 -66.5t196.5 66.5t143.5 172.5h-156q-41 -47 -79.5 -74.5t-104.5 -27.5t-104.5 27.5t-79.5 74.5h-156z" />
<glyph d="M442 1247l140 2v258h-140v-260z" />
<glyph d="M299 1360q0 -51 20.5 -89t51 -62.5t67.5 -36t72 -11.5t73 11.5t69.5 36t52 62.5t20.5 89t-20.5 89t-51 62.5t-68.5 36t-73 11.5t-72 -11.5t-68.5 -36t-52 -62.5t-20.5 -89zM442 1360q0 18 14.5 39.5t53.5 21.5q41 0 55.5 -21.5t14.5 -39.5q0 -16 -12.5 -38t-55.5 -22 q-45 0 -57.5 23t-12.5 37z" />
<glyph unicode="&#xa;" d="M227 1143h142l309 391h-199zM545 1143h141l309 391h-198z" />
<glyph d="M322 -123q0 -43 18 -74.5t48 -52t65.5 -31t70.5 -10.5q70 0 130.5 32.5t123.5 98.5l-102 78q-45 -41 -79 -56.5t-62 -15.5q-27 0 -41.5 5.5t-20.5 11.5t-7 11t-1 7q0 14 7 30.5t42 45.5l160 139h-199l-51 -41q-59 -45 -80.5 -89t-21.5 -89z" />
<glyph d="M59 1485l437 -291h32l437 291h-215l-238 -131l-238 131h-215z" />
<glyph unicode="&#xd;" horiz-adv-x="573" d="M215 -6h143v1192h-143v-1192z" />
<glyph horiz-adv-x="606" d="M-440 -31h178l1331 1571h-176z" />
<glyph horiz-adv-x="1779" d="M39 1047h270v-1565h142v1567h663v137h-665v92q0 86 33.5 140.5t87 87t123 46t151.5 13.5q141 0 248 -39q47 -16 83.5 -41t90.5 -82l82 127q-70 55 -118 81.5t-91 43.5q-68 25 -141.5 35t-153.5 10q-215 0 -355 -82q-90 -53 -136 -140t-46 -198v-96h-268v-137zM1421 -6 h144v1192h-144v-1192zM1421 1319l144 2v264h-144v-266z" />
<glyph horiz-adv-x="1779" d="M39 1047h270v-1565h142v1567h663v137h-665v92q0 86 33.5 140.5t87 87t123 46t151.5 13.5q141 0 248 -39q47 -16 83.5 -41t90.5 -82l82 127q-70 55 -118 81.5t-91 43.5q-68 25 -141.5 35t-153.5 10q-215 0 -355 -82q-90 -53 -136 -140t-46 -198v-96h-268v-137zM1421 -6 h144v1591h-144v-1591z" />
<glyph horiz-adv-x="1411" d="M78 590l180 55v-651h1112v141h-969v553l430 131v142l-430 -132v719h-145v-762l-178 -55v-141z" />
<glyph horiz-adv-x="573" d="M72 578l145 112v-696h141v807l150 117v167l-152 -116v616h-141v-727l-143 -113v-167z" />
<glyph horiz-adv-x="1423" d="M125 -6h1198v141h-997l960 1307v106h-1091v-141h892l-962 -1307v-106zM172 1821l528 -240h25l528 240h-278l-262 -90l-31 10l-92 31l-139 49h-279z" />
<glyph horiz-adv-x="1236" d="M78 -6h1136v139h-919l887 940v113h-1061v-139h846l-889 -941v-112zM166 1526l436 -291h33l436 291h-215l-238 -131l-237 131h-215z" />
<glyph unicode=" "  horiz-adv-x="544" />
<glyph unicode="&#x09;" horiz-adv-x="544" />
<glyph unicode="&#xa0;" horiz-adv-x="544" />
<glyph unicode="!" horiz-adv-x="655" d="M256 -6h143v266h-143v-266zM256 1548l8 -1235h127l8 1235h-143z" />
<glyph unicode="&#x22;" horiz-adv-x="722" d="M160 1548l14 -436h123l14 436h-151zM412 1548l14 -436h123l14 436h-151z" />
<glyph unicode="#" horiz-adv-x="1474" d="M23 522h352l-215 -528h145l215 530h234l-215 -530h145l215 530h358l50 133h-353l90 224h359l49 133h-352l203 499h-146l-205 -501h-231l203 501h-146l-205 -501h-356l-49 -133h350l-90 -224h-356zM575 655l91 226h231l-90 -226h-232z" />
<glyph unicode="$" horiz-adv-x="1744" d="M209 272q59 -72 130 -119t147.5 -75.5t155.5 -41.5t153 -16v-170h137v173q119 8 223.5 41.5t181 90t121.5 132.5t45 166q0 63 -19.5 113t-53 89t-76.5 68t-90 49q-47 23 -97.5 38t-99.5 26q-35 10 -69.5 17t-67.5 13v475q86 -4 149.5 -19t109.5 -40t78.5 -59.5 t57.5 -75.5l121 72q-39 61 -84 107t-105.5 78t-139.5 49t-187 24v151h-137v-151q-154 -6 -255.5 -40t-163 -83t-87 -108.5t-25.5 -117.5q0 -94 41 -154.5t101.5 -98t131 -58t132.5 -33.5q35 -8 66.5 -14t60.5 -12v-602q-145 8 -265 53t-217 162zM403 1120q0 29 12.5 65 t52.5 68.5t118 57t209 30.5l-2 -444q-20 4 -43 9t-45 9q-39 8 -78 17.5t-76 23.5q-72 27 -110 65t-38 99zM930 158v567q27 -4 53.5 -10t54.5 -13q41 -10 83 -22t81 -29q74 -33 117 -81t43 -126q0 -47 -28.5 -95t-84 -88t-136.5 -68.5t-183 -34.5z" />
<glyph unicode="%" horiz-adv-x="2080" d="M125 1149q0 -90 30.5 -166t85 -133t131.5 -89t169 -32t168.5 32t131 88t85 133t30.5 165t-30.5 166t-85 134t-131 89t-168.5 33t-169 -32t-131.5 -89t-85 -134t-30.5 -165zM266 1147q0 129 75 207t200 78t199.5 -78t74.5 -207h-2q0 -129 -73.5 -207t-196.5 -78 q-125 0 -201 78t-76 207zM356 -29h172l1196 1592h-170zM1126 387q0 -90 31 -166t85 -133t131 -89t169 -32t169 32t131 88t85 133t31 165t-31 166t-85 134t-131 89t-169 33t-169 -32t-131 -89t-85 -134t-31 -165zM1268 385q0 129 74.5 207t199.5 78t200 -78t75 -207t-75 -207 t-198 -78q-125 0 -200.5 78t-75.5 207z" />
<glyph unicode="&#x26;" horiz-adv-x="1914" d="M184 379q0 -109 44 -186.5t122 -128t186.5 -75t235.5 -24.5q111 0 205 17.5t172 45t138.5 62.5t105.5 72q86 -55 154.5 -93t135.5 -75h310l-176 88t-129.5 66.5t-99.5 55t-89 54.5q88 98 154.5 232.5t89.5 322.5h-137q-23 -160 -82.5 -277.5t-139.5 -203.5 q-156 111 -291 222.5t-257 229.5q76 33 145.5 71t121.5 85t83 105.5t31 130.5q0 82 -36 139t-92.5 93t-129 52.5t-146.5 16.5q-72 0 -140.5 -18.5t-122.5 -55.5t-87 -94.5t-33 -137.5q0 -100 51 -187t113 -155q-80 -33 -153.5 -74.5t-130 -96t-91.5 -124t-35 -155.5z M326 375q0 98 84 185t286 165q135 -133 284 -259t294 -228q-111 -78 -236 -109t-260 -31q-25 0 -68.5 1t-94 8.5t-101.5 25t-93 48t-68.5 77.5t-26.5 117zM571 1171q0 33 14.5 64t45.5 54.5t78 37.5t114 14q119 0 186.5 -46t67.5 -115h-2q0 -90 -90 -159t-252 -138 q-76 82 -119 148.5t-43 139.5z" />
<glyph unicode="'" horiz-adv-x="471" d="M160 1548l14 -436h123l14 436h-151z" />
<glyph unicode="(" horiz-adv-x="1015" d="M317 643q0 -176 35 -344t115 -322q59 -115 135 -199.5t193 -174.5l98 88q-113 90 -183.5 172t-121.5 184q-41 80 -66.5 163t-40 161t-18.5 147.5t-4 124.5t5 125t18.5 146.5t38 157.5t63.5 159q27 53 57.5 100t67 91t83 86t101.5 87l-98 88q-59 -45 -105.5 -86t-85.5 -85 t-72.5 -94t-66.5 -113q-78 -147 -113 -315.5t-35 -346.5z" />
<glyph unicode=")" horiz-adv-x="1015" d="M123 -309l98 -88q117 90 192.5 175t135.5 199q80 154 114.5 322t34.5 344q0 178 -34.5 346t-112.5 316q-33 63 -66.5 113t-72.5 94t-86 85t-105 86l-98 -88q55 -45 101 -87t83 -86t68 -91t57 -100q39 -78 63.5 -159t38 -157.5t18.5 -146.5t5 -125t-5 -124.5t-18.5 -147.5 t-39 -161t-66.5 -163q-51 -102 -121.5 -184t-183.5 -172z" />
<glyph unicode="*" horiz-adv-x="1396" d="M258 942l72 -127l305 184l-8 -356h143l-8 356l305 -184l72 127l-316 168l312 168l-70 127l-303 -188l8 360h-143l8 -360l-303 188l-70 -127l311 -168z" />
<glyph unicode="+" horiz-adv-x="1638" d="M244 496h508v-412h137v414h506v133h-508v379h-137v-381h-506v-133z" />
<glyph unicode="," horiz-adv-x="532" d="M133 -170h125l115 430h-156z" />
<glyph unicode="-" horiz-adv-x="817" d="M-18 666h680v137h-680v-137z" />
<glyph unicode="." horiz-adv-x="532" d="M47 -6h141v266h-141v-266z" />
<glyph unicode="/" horiz-adv-x="1482" d="M94 -31h168l1139 1641h-166z" />
<glyph unicode="0" horiz-adv-x="1744" d="M102 758q0 -182 58.5 -327.5t162 -248t245 -158t304.5 -55.5q164 0 305.5 54.5t245 157t161.5 248t58 327.5q0 180 -58 325.5t-161.5 248t-245 156.5t-305.5 54t-305 -54t-244.5 -155.5t-162 -247t-58.5 -325.5zM244 756q0 160 50 281.5t135 203.5t198.5 124t242.5 42 t244 -42t201 -124t136 -204t50 -281h-2q0 -160 -49 -282t-135 -203t-200 -123t-243 -42t-243.5 42t-199.5 123t-135 203t-50 282z" />
<glyph unicode="1" horiz-adv-x="1447" d="M188 1280l60 -125l487 195v-1356h142v1532h-74z" />
<glyph unicode="2" horiz-adv-x="1744" d="M193 49l53 -55h1278v143h-1159q41 94 105.5 165t144 127t171 101t183.5 86q49 23 97 45.5t95 45.5q66 33 127.5 71.5t109.5 90t76.5 116t28.5 148.5q0 76 -34.5 149.5t-112.5 130.5t-205 92t-311 35q-248 0 -402.5 -94t-220.5 -301l148 -21q47 141 157.5 211t313.5 70 q172 0 275 -29.5t159.5 -71.5t74 -89.5t17.5 -81.5q0 -72 -36 -125.5t-101 -100.5q-35 -25 -74 -47t-84 -45q-47 -23 -95 -45t-100 -45q-100 -47 -205.5 -102.5t-198.5 -134t-166 -185t-109 -254.5z" />
<glyph unicode="3" horiz-adv-x="1744" d="M197 383q37 -98 94 -175t139 -130t193.5 -81t259.5 -28q150 0 266.5 33t197 91.5t122.5 141.5t42 185q0 84 -38.5 159.5t-108.5 133t-164 91.5t-207 34v-68q94 0 175 36t139.5 90t91.5 118.5t33 124.5q0 86 -36 159.5t-106.5 127t-176 84t-243.5 30.5 q-147 0 -251.5 -32.5t-175 -87t-110.5 -125t-57 -148.5l138 -29q12 51 38.5 103.5t78 92.5t133 65.5t206.5 25.5q123 0 204 -24.5t129 -62.5t67.5 -85t19.5 -92q0 -33 -15 -78t-70.5 -88t-165 -76t-298.5 -39v-129q207 -6 331 -35.5t190.5 -73.5t87 -96.5t20.5 -105.5 q0 -63 -27.5 -120.5t-86 -100.5t-150.5 -69t-223 -26q-133 0 -224.5 24t-155 66t-103.5 100t-68 130z" />
<glyph unicode="4" horiz-adv-x="1744" d="M180 403h885v-409h141v412h330v137h-332v983h-104l-920 -1024v-99zM403 541l402 452q68 74 134 148.5t132 150.5q-4 -76 -5 -155.5t-1 -163.5v-432h-662z" />
<glyph unicode="5" horiz-adv-x="1744" d="M178 371q39 -86 95.5 -160t137.5 -127t187.5 -84t245.5 -31q164 0 291 43t213 114t131 164t45 191q0 117 -49.5 212t-138.5 163t-212 104.5t-268 36.5q-111 0 -203 -23.5t-164 -58.5l95 457h833v141h-948l-160 -784l94 -39q70 72 180.5 122t270.5 50q127 0 225.5 -29.5 t166 -82t102 -122t34.5 -149.5q0 -84 -41 -152.5t-113.5 -117.5t-171 -77t-214.5 -28q-117 0 -202 25t-147.5 67t-105.5 99t-76 123z" />
<glyph unicode="6" horiz-adv-x="1744" d="M172 643q0 -106 30.5 -225t112.5 -218.5t225.5 -165t366.5 -65.5q199 0 332 53.5t213 132t112.5 169.5t32.5 165q0 119 -53 213.5t-147 160t-226.5 100t-287.5 34.5q-201 0 -340.5 -54t-220.5 -138q31 299 176 449.5t426 150.5q199 0 311.5 -75t175.5 -214l133 49 q-84 180 -232.5 277.5t-387.5 97.5q-207 0 -349.5 -68.5t-232.5 -188.5t-130 -284.5t-40 -355.5zM330 518q0 45 27.5 104.5t92 112.5t173 90t270.5 37q137 0 241.5 -27.5t176 -76.5t108.5 -119t37 -152h-2q0 -57 -24.5 -123.5t-87 -124t-168 -96.5t-267.5 -39 q-131 0 -224 27t-157.5 68t-102.5 90t-59.5 95t-27.5 83t-6 51z" />
<glyph unicode="7" horiz-adv-x="1744" d="M256 1372h1028l-702 -1378h159l725 1431v88h-1210v-141z" />
<glyph unicode="8" horiz-adv-x="1744" d="M172 414q0 -111 55.5 -194t150.5 -138t223 -83t271 -28q154 0 282 30t221 86t145.5 138.5t52.5 188.5q0 72 -24.5 133t-66.5 110.5t-99.5 87t-120.5 62.5q55 20 102 50t82 70t54.5 91t19.5 115q0 92 -47.5 166.5t-132.5 129t-203.5 83t-264.5 28.5q-145 0 -264 -28.5 t-204 -83t-132 -129t-47 -166.5q0 -121 75 -203t183 -123q-66 -25 -122 -63.5t-98 -88t-66.5 -111t-24.5 -130.5zM313 410q0 55 31 114.5t98.5 108.5t173 80.5t256.5 31.5q150 0 256.5 -31.5t174 -79.5t98.5 -107.5t31 -114.5q0 -66 -37 -122.5t-107.5 -97t-175 -64.5 t-240.5 -24q-135 0 -239.5 24t-175 64.5t-107.5 96t-37 121.5zM367 1130q0 49 29.5 97.5t91 88.5t156.5 64.5t228 24.5t228.5 -24.5t157 -63.5t91 -87t29.5 -97h-2q0 -49 -27.5 -96.5t-88 -84.5t-155.5 -59.5t-233 -22.5q-137 0 -233 22.5t-156.5 59.5t-88 84t-27.5 94z" />
<glyph unicode="9" horiz-adv-x="1744" d="M172 1034q0 -96 39 -189t124 -167t221 -120t331 -46q201 0 340 54.5t221 138.5q-14 -139 -54 -250t-113 -189t-180.5 -120t-254.5 -42q-100 0 -178 21.5t-139.5 61.5t-107.5 95.5t-85 123.5l-135 -50q51 -88 112.5 -159.5t138 -121.5t174 -78t220.5 -28q211 0 355.5 71 t232.5 193.5t125.5 285.5t37.5 347q0 41 -7 107.5t-31.5 141.5t-72.5 150.5t-131 137t-205 99.5t-294 38q-193 0 -324 -49t-210.5 -124t-114.5 -164t-35 -169zM313 1032q0 51 22.5 115.5t84 122t168 96.5t274.5 39q131 0 224.5 -26.5t158 -67.5t102 -90.5t59 -95.5t28 -82.5 t6.5 -51.5h-2q0 -53 -31 -112.5t-97.5 -111.5t-173 -86t-259.5 -34q-141 0 -247 30t-176.5 82t-105.5 121.5t-35 151.5z" />
<glyph unicode=":" horiz-adv-x="532" d="M195 -6h143v266h-143v-266zM195 827l143 2v265h-143v-267z" />
<glyph unicode=";" horiz-adv-x="532" d="M133 -170h125l115 428h-156zM195 827l143 2v265h-143v-267z" />
<glyph unicode="&#x3c;" horiz-adv-x="1638" d="M244 514l1069 -479v147l-862 381l862 381v148l-1069 -480v-98z" />
<glyph unicode="=" horiz-adv-x="1638" d="M244 365h1151v135h-1151v-135zM244 627l1151 2v133h-1151v-135z" />
<glyph unicode="&#x3e;" horiz-adv-x="1638" d="M326 35l1069 479v98l-1069 480v-148l862 -381l-862 -381v-147z" />
<glyph unicode="?" horiz-adv-x="1198" d="M-53 1204l129 -57q31 63 74 115.5t105 88t148 55t205 19.5q104 0 189.5 -14t147 -44t95 -76t33.5 -111q0 -47 -11 -84t-38 -70t-72 -63.5t-114 -63.5q-111 -53 -184.5 -105.5t-114.5 -119t-55.5 -152.5t-8.5 -209h129q-2 92 6 158t38 117t86.5 94t152.5 88 q86 41 147.5 83t101.5 89t59 104.5t19 129.5q0 113 -52 187.5t-136 118.5t-191.5 61.5t-218.5 17.5q-145 0 -252.5 -25t-186.5 -71t-135 -111.5t-95 -149.5zM471 -6h141v266h-141v-266z" />
<glyph unicode="@" horiz-adv-x="2039" d="M125 512q0 -160 62.5 -294t175 -231.5t266 -152.5t336.5 -55q72 0 146.5 6t151 23.5t156.5 50t162 88.5l-94 94q-63 -37 -121.5 -61.5t-119 -39t-123 -20.5t-132.5 -6q-162 0 -296 45t-229 125t-147.5 189.5t-52.5 238.5q0 193 76 330t203 231q123 92 274.5 136t325.5 44 q186 0 305 -46t195 -105q86 -70 117.5 -154t31.5 -162q0 -63 -13.5 -127.5t-37 -124t-55 -109.5t-68.5 -83q-8 -8 -17.5 -10t-25.5 -4q-8 0 -15.5 1t-17.5 1l-4 506v51l-4 -2q-6 43 -26.5 99t-64.5 106.5t-117 85t-181 34.5q-57 0 -126 -8t-129.5 -18t-99.5 -18l-40 -9 l14 -139l32 9q33 9 87.5 19.5t122 19.5t137.5 9q88 0 139 -31.5t76.5 -75.5t32 -90.5t6.5 -72.5q-213 -18 -385 -48t-293 -82t-185.5 -136t-64.5 -211q0 -68 26.5 -130.5t88 -111.5t161 -79t244.5 -30q45 0 106.5 10.5t129 33t134 61.5t122.5 94l16 19h35h47q27 2 61.5 8 t65.5 35q51 45 94 111.5t72 142t45 152t16 142.5q0 119 -53 228.5t-154.5 192.5t-249 132.5t-337.5 49.5q-211 0 -396.5 -60.5t-322.5 -174.5t-217 -276.5t-80 -365.5zM612 330q0 78 44 134t139.5 95t245 65.5t360.5 45.5l-2 -387l-4 -11q-47 -51 -102.5 -82.5t-111 -48 t-104.5 -22.5t-82 -6q-125 0 -199.5 22.5t-115.5 55t-54.5 70.5t-13.5 69z" />
<glyph unicode="A" horiz-adv-x="1415" d="M-39 -6h156l225 508h700l228 -508h157l-688 1554h-92zM406 641l153 356q35 78 66.5 156t66.5 158q35 -84 70 -163t69 -159l150 -348h-575z" />
<glyph unicode="B" horiz-adv-x="1640" d="M256 -6h444q82 0 176.5 4t187.5 19.5t179 45t151.5 80t104.5 124t39 175.5q0 147 -91 240.5t-243 138.5q123 49 181.5 134t58.5 198q0 182 -176 288.5t-559 106.5h-453v-1554zM401 133v610h332q182 0 308 -23.5t204 -63.5t113 -95.5t35 -118.5q0 -98 -57.5 -158.5 t-154 -94t-221 -45t-260.5 -11.5h-299zM401 881v528h301q180 0 296 -22.5t182.5 -57.5t92 -81t25.5 -91h-2q0 -45 -16 -93t-75.5 -89t-178.5 -67.5t-321 -26.5h-304z" />
<glyph unicode="C" horiz-adv-x="1728" d="M113 772q0 -186 65.5 -335.5t186.5 -262.5q96 -90 246.5 -149.5t340.5 -59.5q129 0 234.5 36t190.5 93.5t152 129t120 143.5l-117 82q-41 -59 -96.5 -120t-127 -112t-160.5 -83t-196 -32q-133 0 -259 41t-222 124t-154.5 208t-58.5 295q0 180 61.5 307t162 208t226.5 118 t255 37q184 0 307 -86t209 -221l123 73q-53 82 -117 150.5t-142.5 118t-173 76t-206.5 26.5q-184 0 -338 -56.5t-271 -162.5q-115 -106 -178 -255t-63 -331z" />
<glyph unicode="D" horiz-adv-x="1763" d="M297 -6h512q221 0 386 55t275.5 156.5t165 245t54.5 319.5t-54.5 320.5t-165 246t-275.5 156.5t-386 55h-512v-1554zM442 133v1276h371q195 0 333 -46t227 -131t130 -203t41 -259t-41 -258t-130 -202t-227 -131t-333 -46h-371z" />
<glyph unicode="E" horiz-adv-x="1472" d="M256 -6h1083v141h-938v600h740v139h-740v535h910v139h-1055v-1554z" />
<glyph unicode="F" horiz-adv-x="1433" d="M256 -6h147v741h738v139h-740v535h910v139h-1055v-1554z" />
<glyph unicode="G" horiz-adv-x="1712" d="M113 770q0 -193 68.5 -342t183 -252.5t264 -157t313.5 -53.5q84 0 161 10.5t151.5 33t149.5 58t155 89.5v575h-740v-141h594v-363q-102 -61 -222 -93t-235 -32q-145 0 -272 44t-222 129t-149.5 210t-54.5 285q0 188 66.5 316t169 207t224.5 113t232 34q88 0 158 -16.5 t130 -50.5t113.5 -87t110.5 -127l121 78q-66 84 -130 147.5t-139 106.5t-165 64.5t-207 21.5q-133 0 -278.5 -43t-268.5 -139.5t-202.5 -250t-79.5 -374.5z" />
<glyph unicode="H" horiz-adv-x="1873" d="M256 -6h147v745h1070v-745h145v1554h-148v-671h-1069v671h-145v-1554z" />
<glyph unicode="I" horiz-adv-x="700" d="M276 -6h148v1554h-148v-1554z" />
<glyph unicode="J" horiz-adv-x="1288" d="M-55 205q57 -55 112.5 -99.5t115.5 -76t131 -48t157 -16.5q279 0 430 190.5t151 546.5v846h-147v-843q0 -315 -115.5 -458t-316.5 -143q-63 0 -117.5 13.5t-105 39t-99.5 63.5t-100 89z" />
<glyph unicode="K" horiz-adv-x="1523" d="M256 -6h147v563l252 242l707 -805h194l-800 901l684 653h-207l-471 -452q-92 -88 -180 -174t-181 -172v313v485h-145v-1554z" />
<glyph unicode="L" horiz-adv-x="1411" d="M256 -6h1114v141h-969v1413h-145v-1554z" />
<glyph unicode="M" horiz-adv-x="2611" d="M256 -6h147q0 457 -1 775t-3 517q131 -195 342 -515t516 -777h99q305 457 517 775t343 517q-2 -199 -2 -516v-776h145v1554h-139q-334 -500 -559 -838.5t-352 -531.5q-127 193 -353.5 532t-558.5 838h-141v-1554z" />
<glyph unicode="N" horiz-adv-x="1851" d="M256 -6h147q0 469 -1 793.5t-3 523.5q160 -199 422 -522.5t643 -794.5h131v1554h-147q0 -471 1 -794.5t3 -522.5q-158 195 -421 520.5t-644 796.5h-131v-1554z" />
<glyph unicode="O" horiz-adv-x="1925" d="M113 772q0 -203 71.5 -354.5t189.5 -251.5t271.5 -150.5t317.5 -50.5t317.5 49t271 149.5t189 252t71.5 354.5q0 205 -71.5 356.5t-189 252t-271.5 149.5t-317 49q-164 0 -317.5 -49t-271.5 -149.5t-189.5 -252t-71.5 -354.5zM258 772q0 170 58.5 296t154.5 209t223 124 t267 41q139 0 267 -41t225 -124t155.5 -209t58.5 -296h-2q0 -170 -57.5 -295t-154.5 -208t-224 -124t-266 -41t-266.5 41t-224.5 124t-155.5 208t-58.5 295z" />
<glyph unicode="P" horiz-adv-x="1660" d="M256 -6h147v600h336q436 0 642 122.5t206 358.5q0 223 -195.5 348t-611.5 125h-524v-1554zM401 731v678h396q193 0 317.5 -28.5t197 -76t101.5 -107.5t29 -122h-2q0 -70 -31 -132t-109.5 -109.5t-215 -75t-349.5 -27.5h-334z" />
<glyph unicode="Q" horiz-adv-x="1925" d="M113 772q0 -203 71.5 -354.5t189.5 -251.5t271.5 -150.5t317.5 -50.5q33 0 63.5 2t63.5 6q29 -31 69.5 -67.5t93.5 -73.5q51 -35 119 -52.5t136 -21.5q24 -1 48 -1q43 0 84 5q64 7 109 19l-8 123q-31 -6 -87 -10q-22 -1 -45 -1q-36 0 -73 3q-61 6 -118.5 18t-90.5 35 q-37 25 -76 57q117 35 219.5 100.5t178 160.5t119.5 220t44 283q0 205 -71.5 356.5t-189 252t-271.5 149.5t-317 49q-164 0 -317.5 -49t-271.5 -149.5t-189.5 -252t-71.5 -354.5zM258 772q0 170 58.5 296t154.5 209t223 124t267 41q139 0 267 -41t225 -124t155.5 -209 t58.5 -296h-2q0 -143 -41 -253.5t-111.5 -191.5t-166 -131.5t-205.5 -72.5l-60 67q-14 16 -36.5 39t-50 47.5t-60.5 47t-70 41.5q-61 31 -132 40q-63 8 -124 8h-14q-68 -1 -127 -11.5t-98 -18.5q-51 76 -81 172t-30 217zM479 262q76 12 164 13h5q85 0 155 -33 q29 -14 50 -27.5t40.5 -30t38 -36t41.5 -44.5h-10q-137 2 -261 41t-223 117z" />
<glyph unicode="R" horiz-adv-x="1656" d="M268 -6h146v633h477l649 -633h205l-668 645q104 16 194.5 55t157 98.5t105.5 136.5t39 169q0 217 -187.5 333.5t-580.5 116.5h-537v-1554zM414 764v645h374q209 0 335 -28.5t193.5 -73.5t89 -100.5t21.5 -108.5q0 -61 -30.5 -120.5t-93 -107t-156.5 -77t-221 -29.5h-512z " />
<glyph unicode="S" horiz-adv-x="1617" d="M82 244q59 -68 129 -120t157 -88t192.5 -53.5t236.5 -17.5q158 0 287.5 37t226.5 102q92 61 145 147.5t53 188.5q0 57 -15 105.5t-41 86.5t-57.5 67.5t-64.5 50.5q-39 27 -83 46t-101 35.5t-129 34t-166 37.5q-111 25 -184.5 41.5t-124.5 30.5t-85 25.5t-63 25.5 q-49 25 -78.5 67t-29.5 97q0 111 116 176q66 35 172.5 54.5t231.5 19.5q111 0 193.5 -14.5t142 -42t101.5 -68.5t71 -92l129 67q-43 74 -99.5 128.5t-133 89t-176 52t-228.5 17.5q-145 0 -263 -21.5t-210 -68.5q-100 -53 -146.5 -132t-46.5 -159q0 -55 14.5 -101t38 -82 t54.5 -61.5t63 -44.5q29 -14 60.5 -27.5t82 -27.5t126 -32.5t194.5 -45.5q115 -25 191.5 -43t128 -33.5t83 -28t58.5 -26.5q47 -27 88 -75t41 -132q0 -63 -35 -119.5t-96 -97.5q-78 -51 -185.5 -84t-248.5 -33q-225 0 -370.5 63.5t-231.5 172.5z" />
<glyph unicode="T" horiz-adv-x="1404" d="M45 1407h598v-1413h145v1415h598v139h-1341v-141z" />
<glyph unicode="U" horiz-adv-x="1705" d="M236 633q0 -188 36.5 -316.5t111.5 -206t190.5 -111.5t275.5 -34q162 0 279.5 34t193.5 111.5t111.5 206t35.5 316.5v915h-147v-911q0 -150 -20.5 -252t-73.5 -164.5t-144.5 -90.5t-234.5 -28q-139 0 -229.5 28t-143.5 90.5t-74.5 164.5t-21.5 252v911h-145v-915z" />
<glyph unicode="V" horiz-adv-x="1542" d="M4 1548l719 -1554h106l719 1554h-155l-340 -737q-72 -152 -139.5 -299t-137.5 -303q-70 154 -137.5 302t-138.5 300l-340 737h-156z" />
<glyph unicode="W" horiz-adv-x="2478" d="M8 1548l610 -1554h111l287 733q57 147 113.5 292.5t113.5 295.5q59 -150 115.5 -296.5t114.5 -293.5l286 -731h111l610 1554h-153l-287 -731q-57 -145 -112.5 -290.5t-112.5 -301.5q-57 154 -113.5 300.5t-114.5 291.5l-287 731h-112l-287 -733q-57 -145 -112.5 -290.5 t-114.5 -299.5q-57 154 -112.5 299.5t-112.5 290.5l-287 733h-154z" />
<glyph unicode="X" horiz-adv-x="1650" d="M43 -6h184l598 700l598 -700h185l-693 807l641 747h-186l-545 -641l-544 641h-187l641 -747z" />
<glyph unicode="Y" horiz-adv-x="1433" d="M-29 1548l674 -895v-659h146v659l671 895h-176l-311 -413q-66 -86 -129.5 -172t-128.5 -175q-66 86 -129.5 171t-128.5 174l-312 415h-176z" />
<glyph unicode="Z" horiz-adv-x="1423" d="M125 -6h1198v141h-997l960 1307v106h-1091v-141h892l-962 -1307v-106z" />
<glyph unicode="[" horiz-adv-x="980" d="M365 -326h417v138h-276v1663h276v135h-417v-1936z" />
<glyph unicode="\" horiz-adv-x="1482" d="M84 1610l1139 -1641h168l-1141 1641h-166z" />
<glyph unicode="]" horiz-adv-x="980" d="M199 -190v-136h417v1936h-417v-137h276v-1663h-276z" />
<glyph unicode="^" horiz-adv-x="1638" d="M287 643h151l383 709l383 -709l152 2l-488 895h-94z" />
<glyph unicode="_" horiz-adv-x="1638" d="M-37 -422v-162h1739v162h-1739z" />
<glyph unicode="`" d="M39 1499l467 -334l192 2l-407 332h-252z" />
<glyph unicode="a" horiz-adv-x="1337" d="M82 322q0 -68 26.5 -131.5t88 -112.5t161 -79t244.5 -30q39 0 90 6.5t108.5 21.5t116 42t109.5 67q10 -25 25.5 -51t46.5 -61h182l-63 74q-23 27 -36.5 43t-19.5 33.5t-8 39t-2 58.5v573q0 195 -119 295t-377 100q-76 0 -145.5 -9t-106 -17t-41.5 -10l15 -146 q4 2 32.5 12.5t94 22.5t149.5 12q106 0 176 -17.5t111 -51t56.5 -84t15.5 -117.5v-6q-215 -18 -387 -48t-293 -82.5t-185.5 -136t-64.5 -210.5zM223 324q0 78 44 133t139.5 94t245 65.5t360.5 45.5l-2 -390q-47 -53 -102.5 -85.5t-112 -51t-106.5 -25t-83 -6.5 q-125 0 -199.5 23t-115.5 56.5t-54.5 71.5t-13.5 69z" />
<glyph unicode="b" horiz-adv-x="1503" d="M195 -6h143l-2 121q20 -16 41.5 -30.5t48.5 -31.5q63 -35 147 -59.5t195 -24.5q160 0 280.5 52.5t200.5 139.5t121 198.5t41 230.5q0 131 -45 244.5t-128 197.5t-201.5 131t-264.5 47q-117 0 -227.5 -33.5t-208.5 -105.5v514h-141v-1591zM336 287v608q104 100 209.5 140 t224.5 40t212 -38t157.5 -104.5t97.5 -154.5t33 -188h-2q0 -96 -32 -184.5t-95.5 -155t-155.5 -106.5t-215 -40q-98 0 -171 24t-126 54q-27 16 -49.5 31.5t-40.5 32.5q-14 12 -25.5 21t-21.5 20z" />
<glyph unicode="c" horiz-adv-x="1378" d="M92 590q0 -164 56.5 -280.5t148.5 -192.5t211 -112t244 -36q115 0 202.5 24.5t155.5 67.5t121 101.5t96 126.5l-127 63q-35 -55 -76 -101t-94 -78t-120.5 -50.5t-157.5 -18.5q-98 0 -192.5 28t-166 87.5t-116 151.5t-44.5 219q0 121 44.5 212t117 151.5t165.5 91 t192 30.5q80 0 141 -13t110.5 -39t90.5 -65.5t80 -93.5l122 72q-104 137 -229 205.5t-315 68.5q-121 0 -240 -36.5t-212 -113.5t-150.5 -193.5t-57.5 -276.5z" />
<glyph unicode="d" horiz-adv-x="1503" d="M92 590q0 -119 41 -230.5t121 -198.5t200.5 -139.5t280.5 -52.5q117 0 204 28t151 64q45 27 79 56q-2 -45 -3 -84l-1 -39h144v1591h-144v-514q-96 72 -206.5 105.5t-227.5 33.5q-145 0 -264 -47t-202 -131t-128 -197.5t-45 -244.5zM233 590q0 100 33 188t97.5 154.5 t156.5 104.5t213 38q119 0 224.5 -40t209.5 -140l-2 -608q-10 -10 -23.5 -21.5t-27.5 -23.5q-20 -16 -42.5 -32.5t-49.5 -31.5q-53 -31 -124 -52.5t-163 -21.5q-123 0 -216 40t-156.5 106.5t-96.5 155t-33 184.5z" />
<glyph unicode="e" horiz-adv-x="1396" d="M92 604q0 -156 48 -270.5t130 -194.5q94 -90 215 -130t246 -40q82 0 185.5 18.5t193.5 40t152 40.5l61 18l-10 135q-23 -8 -85.5 -27.5t-145.5 -39t-176 -35t-179 -15.5q-80 0 -163 23t-153.5 75t-118.5 137t-56 208h1095q0 168 -46 282.5t-118 192.5q-88 92 -199.5 140 t-236.5 48q-141 0 -250.5 -43t-195.5 -116q-92 -80 -142.5 -193t-50.5 -254zM238 678q8 80 47 151.5t103.5 127t151.5 87t191 31.5q92 0 169 -32.5t135.5 -88t95 -128t49.5 -150.5v2h-942z" />
<glyph unicode="f" horiz-adv-x="1206" d="M59 1053h269v-1571h141v1573h664v131h-664v92q0 86 33 140.5t86 87t122.5 46t151.5 13.5q141 0 248 -39q47 -16 84 -41t90 -82l82 127q-70 55 -117 81.5t-92 43.5q-68 25 -140.5 35t-154.5 10q-215 0 -354 -82q-90 -53 -135 -140t-45 -198v-96h-269v-131z" />
<glyph unicode="g" horiz-adv-x="1495" d="M92 582q0 -154 57.5 -269.5t148.5 -191.5t204.5 -114t228.5 -38q154 0 259.5 43t178.5 97v-31q0 -133 -26.5 -213t-79.5 -139q-63 -70 -157.5 -101t-180.5 -31q-82 0 -149.5 13.5t-118.5 36.5q-72 33 -122 73.5t-104 100.5l-108 -94q84 -86 149.5 -132.5t126.5 -72.5 q143 -59 328 -60q135 0 249 46t189 128q80 88 113 196t33 249v1108h-144l2 -107q-86 66 -188 98.5t-231 32.5q-127 0 -225.5 -29.5t-172 -78.5t-123 -113.5t-80 -135.5t-44 -140.5t-13.5 -130.5zM233 588q0 61 21.5 145t80 160t159 129t260.5 53q147 0 246.5 -48t168.5 -128 l-2 -616q-35 -33 -75.5 -65t-93 -57.5t-117 -41t-144.5 -15.5q-102 0 -194 32t-161 93.5t-109 151.5t-40 207z" />
<glyph unicode="h" horiz-adv-x="1476" d="M209 -6h141v872q27 20 60.5 44t70.5 45.5t73 40t67 28.5q143 51 251 51q94 0 148.5 -23.5t83.5 -52.5q35 -35 47 -83t12 -105v-817h142v819q0 94 -25 160.5t-76 120.5q-112 116 -323 116h-4q-150 0 -302 -59q-57 -23 -112 -53.5t-113 -67.5v555h-141v-1591z" />
<glyph unicode="i" horiz-adv-x="573" d="M229 -6h142v1192h-142v-1192zM229 1319l142 2v264h-142v-266z" />
<glyph unicode="j" horiz-adv-x="573" d="M-655 -358q78 -59 133 -89t108.5 -50.5t114.5 -32t133 -11.5q281 0 418 154q55 59 80.5 137t25.5 203v1233h-143v-1235q0 -104 -16.5 -157.5t-46.5 -90.5q-29 -33 -66 -53.5t-78 -32.5t-83 -17.5t-81 -5.5q-43 0 -75.5 4.5t-59.5 10.5q-47 10 -78 24q-25 8 -46 19.5 t-44.5 25t-50.5 33t-61 45.5zM215 1319l143 2v264h-143v-266z" />
<glyph unicode="k" horiz-adv-x="1296" d="M209 -6h141v469l176 135l656 -604h204l-747 692l633 500h-223q-176 -139 -350.5 -275.5t-348.5 -275.5v199v751h-141v-1591z" />
<glyph unicode="l" horiz-adv-x="573" d="M236 -6h141v1591h-141v-1591z" />
<glyph unicode="m" horiz-adv-x="2140" d="M195 -6h143v880q59 53 119.5 91.5t117.5 60.5q59 27 112.5 38t94.5 11q59 0 99.5 -14t69 -39t42 -57.5t13.5 -83.5v-887h141v883q66 55 127 92t117 59q109 47 196 47q74 0 116 -18.5t64 -42.5q29 -33 38.5 -73t9.5 -87v-860h141v870q0 70 -20.5 132.5t-65.5 109.5 q-47 49 -117 76.5t-164 27.5q-117 0 -243 -51q-106 -43 -228 -135q-14 29 -34.5 56.5t-49.5 49.5q-47 37 -110.5 58.5t-141.5 21.5q-53 0 -111.5 -11t-123.5 -38q-49 -20 -101.5 -50t-109.5 -71l2 146h-143v-1192z" />
<glyph unicode="n" horiz-adv-x="1476" d="M195 -6h143v872q27 20 60.5 44t69.5 45.5t71.5 40t66.5 28.5q143 51 252 51q94 0 148.5 -23.5t85.5 -52.5q35 -35 47 -83t12 -105v-817h141v819q0 94 -24.5 160.5t-75.5 120.5q-112 116 -326 116h-4q-147 0 -299 -59q-115 -45 -231 -125q2 29 3 68t2 63.5t1 28.5h-143 v-1192z" />
<glyph unicode="o" horiz-adv-x="1513" d="M92 590q0 -123 42 -235.5t125 -198.5t208 -136.5t291 -50.5q172 0 297 53.5t205.5 139.5t120.5 197.5t40 228.5q0 147 -52 263t-142 195.5t-211 121.5t-258 42t-258 -42t-212 -120.5t-143.5 -194.5t-52.5 -263zM233 588q0 113 40 203t110 153.5t166 96t209 32.5 t208 -32.5t164.5 -96t109.5 -154t40 -202.5h-2q0 -96 -32 -183.5t-95.5 -155t-161.5 -107.5t-229 -40q-135 0 -234.5 40t-164 107.5t-96.5 156t-32 182.5z" />
<glyph unicode="p" horiz-adv-x="1503" d="M195 -514h143v627q37 -27 75 -49.5t72 -38.5q90 -37 163 -46.5t124 -9.5q156 0 276.5 53.5t196.5 135.5q90 98 128 210.5t38 225.5q0 131 -44 237.5t-118 186.5q-179 192 -474 192h-3q-88 0 -161.5 -16t-137.5 -45q-41 -16 -74.5 -35.5t-62.5 -42.5l2 115h-143v-1700z M336 287v608q43 43 93 77t99 56q61 29 122 38t122 9q125 0 218 -41t155 -108q61 -66 93 -152t32 -180h-2q0 -113 -35 -197t-90 -143q-72 -78 -168 -114t-203 -36q-74 0 -133 13.5t-102 32.5q-41 18 -91.5 49.5t-109.5 87.5z" />
<glyph unicode="q" horiz-adv-x="1503" d="M92 594q0 -113 38 -225.5t128 -210.5q76 -82 196.5 -135.5t276.5 -53.5q51 0 124 9.5t163 46.5q35 16 72.5 38.5t76.5 49.5v-627h142v1700h-144l2 -115q-29 23 -62.5 42.5t-74.5 35.5q-63 29 -137 45t-162 16q-297 0 -477 -192q-74 -80 -118 -186.5t-44 -237.5zM233 594 q0 94 32 180t93 152q63 68 155.5 108.5t217.5 40.5q61 0 121.5 -9t122.5 -38q49 -23 99 -56.5t93 -76.5v-608q-59 -55 -109 -87t-91 -50q-43 -18 -102.5 -32t-133.5 -14q-106 0 -201.5 36t-169.5 114q-55 57 -91 142t-36 198z" />
<glyph unicode="r" horiz-adv-x="1150" d="M195 -6h143v893q102 84 213 137q66 29 121 40t102 11q45 0 79 -7t60 -19q20 -10 45 -30t72 -71l94 111q-53 49 -84.5 72.5t-68.5 39.5q-47 23 -97.5 31t-99.5 8q-78 0 -147.5 -19.5t-132.5 -47.5q-43 -18 -81 -41t-77 -51l2 135h-143v-1192z" />
<glyph unicode="s" horiz-adv-x="1335" d="M49 195q76 -68 135.5 -108t137.5 -62q78 -25 168 -40.5t196 -15.5q137 0 244.5 29t183.5 82q74 53 112 113.5t38 152.5q0 66 -28 125t-79 100q-33 27 -71.5 46.5t-93 35t-125 28.5t-169.5 30q-109 16 -177 28.5t-110 23.5t-67 22.5t-45 27.5q-29 23 -39 45.5t-10 46.5 q0 70 84 113q59 31 148 43t188 12q176 0 281.5 -50t164.5 -138l111 96q-59 74 -108.5 110.5t-102.5 59.5q-82 37 -169 48t-177 11q-248 0 -396 -67q-76 -35 -120.5 -94.5t-44.5 -143.5q0 -127 114 -209q33 -25 69 -41t86 -28.5t119.5 -24.5t168.5 -27q102 -16 169.5 -28 t112.5 -24.5t72 -27t47 -32.5q29 -25 42 -58.5t13 -64.5q0 -88 -90 -150q-68 -43 -162 -63.5t-192 -20.5q-186 0 -316.5 52.5t-207.5 138.5z" />
<glyph unicode="t" horiz-adv-x="1384" d="M23 1053h339v-639q0 -145 57.5 -233.5t141.5 -135.5t179.5 -61.5t172.5 -14.5q150 0 273 46.5t217 99.5l-62 125q-92 -47 -197.5 -91.5t-225.5 -44.5q-78 0 -153 12.5t-133.5 47.5t-93 94t-34.5 156v641h760v131h-760v332h-142v-334h-339v-131z" />
<glyph unicode="u" horiz-adv-x="1476" d="M184 367q0 -94 24.5 -161t76.5 -120q113 -117 329 -117q145 0 299 62q59 23 114.5 53.5t117.5 71.5q-2 -29 -3 -69t-2 -64.5t-1 -28.5h143v1192h-143v-873q-72 -53 -143.5 -92t-125.5 -61q-68 -29 -132 -42.5t-120 -13.5q-98 0 -151 25t-80 51q-37 35 -49 81t-12 108v817 h-142v-819z" />
<glyph unicode="v" horiz-adv-x="1368" d="M-12 1186l645 -1192h100l647 1192h-157l-297 -555q-59 -115 -120 -226.5t-122 -226.5q-59 111 -119.5 222.5t-120.5 224.5l-297 561h-159z" />
<glyph unicode="w" horiz-adv-x="2547" d="M-12 1186l643 -1192h104l299 553q59 113 117.5 221.5t118.5 220.5q59 -113 120.5 -223.5t120.5 -222.5l299 -549h107l643 1192h-158l-297 -551q-59 -113 -119.5 -225.5t-121.5 -227.5q-61 113 -122 224.5t-122 226.5l-301 553h-96q-141 -262 -274.5 -509t-264.5 -495 q-61 115 -122.5 227.5t-121.5 227.5l-295 549h-157z" />
<glyph unicode="x" horiz-adv-x="1284" d="M76 -6h123l442 516l444 -516h123v72l-475 546l430 502v72h-121l-401 -469l-399 469h-123v-72l434 -502l-477 -546v-72z" />
<glyph unicode="y" horiz-adv-x="1353" d="M-51 -438q57 -35 91 -51.5t75 -26.5q35 -10 76.5 -17.5t95.5 -7.5q111 0 189.5 34t133.5 85q57 51 90 107.5t54 103.5l604 1397h-152l-229 -533q-45 -109 -93 -219t-96 -223l-278 444l-332 531h-166l709 -1129l-94 -217q-47 -102 -109 -162q-84 -84 -231 -84 q-39 0 -71 5.5t-60 13.5q-29 10 -58.5 25.5t-77.5 46.5z" />
<glyph unicode="z" horiz-adv-x="1236" d="M78 -6h1136v139h-919l887 940v113h-1061v-139h846l-889 -941v-112z" />
<glyph unicode="{" horiz-adv-x="950" d="M166 580q88 -10 124 -22.5t54 -33.5q20 -23 33.5 -59.5t13.5 -124.5v-295q0 -92 21.5 -158.5t68.5 -113.5q49 -51 125 -72t197 -29v133q-98 4 -146.5 19.5t-74.5 40.5q-20 18 -36 58t-16 118v321q0 86 -19 146.5t-58 101.5q-8 10 -16.5 17.5t-18.5 15.5q20 14 35 31 q39 41 59 101.5t20 146.5v321q0 78 14.5 117t37.5 61q18 20 69.5 37t149.5 21v133q-121 -8 -197 -28.5t-125 -72.5q-92 -90 -92 -272v-295q0 -88 -12 -125t-33 -59q-18 -20 -54 -33.5t-124 -21.5v-125z" />
<glyph unicode="|" horiz-adv-x="1214" d="M539 -518h139v2150h-139v-2150z" />
<glyph unicode="}" horiz-adv-x="950" d="M147 -195v-133q121 8 197 28.5t125 72.5q92 90 92 272v295q0 88 12.5 125t32.5 59q8 10 20.5 18.5t33 14.5t50 12.5t74.5 10.5v125q-45 4 -74.5 10t-50 12t-33 14.5t-20.5 18.5q-20 23 -33.5 59.5t-13.5 124.5v295q0 92 -21.5 158.5t-68.5 113.5q-49 51 -125 72t-197 29 v-133q98 -4 149.5 -20.5t70.5 -37.5q23 -23 38 -61.5t15 -116.5v-321q0 -86 19.5 -146.5t58.5 -101.5q8 -10 16 -17.5t18 -15.5q-20 -14 -34 -31q-39 -41 -59.5 -101t-20.5 -147v-321q0 -78 -14.5 -118t-34.5 -58q-27 -25 -75 -40t-147 -20z" />
<glyph unicode="~" horiz-adv-x="1638" d="M182 532l127 -63q41 41 86 66.5t129 25.5q43 0 93.5 -7t115.5 -24l131 -34q43 -10 106.5 -22.5t147.5 -12.5q61 0 109.5 12t88.5 33.5t73.5 52.5t66.5 68l-127 63q-41 -41 -86 -66.5t-129 -25.5q-43 0 -93 7t-116 24l-131 35q-43 10 -106.5 22t-147.5 12 q-123 0 -198.5 -45t-139.5 -121z" />
<glyph unicode="&#xa1;" horiz-adv-x="655" d="M256 -461h143l-8 1235h-127zM256 827l143 2v265h-143v-267z" />
<glyph unicode="&#xa2;" horiz-adv-x="1744" d="M211 758q0 -133 42 -241.5t116.5 -187.5t181 -128t235.5 -62v-145h138v143q174 10 300 80t232 211l-117 80q-80 -111 -180 -168t-237 -68v967q127 -10 227 -64.5t166 -138.5l117 80q-106 125 -230.5 186.5t-279.5 71.5v139h-138v-141q-131 -16 -237.5 -66.5t-181 -130 t-114.5 -186t-40 -231.5zM352 758q0 193 114 319.5t320 157.5l-2 -956q-98 14 -177 51t-136 97t-88 143t-31 188z" />
<glyph unicode="&#xa3;" horiz-adv-x="1744" d="M209 700h278q23 -59 40.5 -120.5t17.5 -135.5q0 -111 -63.5 -192.5t-205.5 -153.5l60 -112q37 14 67.5 22t60.5 12.5t62.5 6.5t73.5 2q74 0 142.5 -7.5t135 -16.5t133 -16t138.5 -7q84 0 149.5 9t118.5 27.5t97 47t85 65.5l-98 90q-39 -31 -74.5 -51t-75.5 -31.5 t-89.5 -16.5t-112.5 -5q-84 0 -147.5 7t-125 16.5t-127 16.5t-149.5 7l-14 -2q96 119 96 282q0 74 -13.5 137.5t-31.5 120.5h537v136h-588q-27 66 -48.5 129t-21.5 135q0 66 20.5 121t66.5 94t120 60.5t182 21.5q129 0 215 -41t154 -139l117 69q-49 72 -103.5 120t-116 75.5 t-129 39t-141.5 11.5q-129 0 -227.5 -32t-164 -88t-98 -134t-32.5 -172q0 -76 16.5 -141.5t38.5 -130.5h-225v-136z" />
<glyph unicode="&#xa4;" horiz-adv-x="1728" d="M-2 590h215q53 -248 233 -416q96 -90 247 -149.5t341 -59.5q129 0 234.5 36t190.5 93.5t152 129t120 143.5l-117 82q-41 -59 -96.5 -120t-127 -112t-160.5 -83t-196 -32q-115 0 -224.5 30t-199.5 91.5t-155.5 153.5t-94.5 215h1225v133h-1243v45v41q0 20 2 43h1241v133 h-1216q33 119 102.5 205t160.5 141.5t197.5 81t214.5 25.5q184 0 307.5 -86t209.5 -221l122 73q-53 82 -116.5 150.5t-142 118t-173 76t-207.5 26.5q-184 0 -337.5 -56.5t-270.5 -162.5q-160 -147 -215 -373h-223v-133h201q-2 -18 -2 -39v-41v-49h-199v-133z" />
<glyph unicode="&#xa5;" horiz-adv-x="1732" d="M150 1513l626 -835h-549v-135h570v-107h-570v-135h570v-307h141v309h563v135h-565v107h565v135h-545l627 833h-176l-299 -397q-59 -82 -119.5 -163t-122.5 -167q-59 84 -121.5 165t-121.5 165l-297 397h-176z" />
<glyph unicode="&#xa6;" horiz-adv-x="1214" d="M539 -365h139v820h-139v-820zM539 659l139 3v817h-139v-820z" />
<glyph unicode="&#xa7;" horiz-adv-x="1593" d="M195 -4q37 -43 86 -88t118.5 -80t162.5 -57.5t216 -22.5q113 0 217.5 26.5t196.5 92.5q68 49 116 121.5t48 167.5q0 61 -15.5 104t-37.5 72q61 51 102 118.5t41 141.5q0 106 -44 174t-120 113t-177 72.5t-214 52.5q-59 12 -114.5 25t-102.5 25.5t-84 24t-58 21.5 q-57 27 -80.5 60.5t-23.5 82.5q0 63 41 103t102.5 60.5t135 28t141.5 7.5q63 0 123.5 -9.5t113 -32t93.5 -61.5t65 -98l129 66q-39 84 -99.5 136t-131 81.5t-146 41t-149.5 11.5q-104 0 -203.5 -15.5t-183.5 -56.5q-33 -16 -63.5 -40.5t-55.5 -57.5t-39 -73t-14 -89 q0 -51 17.5 -102t55.5 -92q-29 -16 -57.5 -39t-52 -53.5t-38.5 -70.5t-15 -91q0 -92 44 -152.5t118.5 -100.5t173 -64.5t206.5 -47.5q59 -12 120 -26.5t113 -30t95 -32.5t70 -38q41 -33 59 -63.5t18 -79.5q0 -59 -31.5 -108.5t-84.5 -86.5q-127 -84 -320 -84 q-94 0 -165.5 15.5t-128 41t-99.5 62.5t-78 80zM338 788q0 63 37 107.5t117 71.5q80 -29 158.5 -49.5t152.5 -38t141.5 -31.5t126.5 -33q119 -35 176.5 -83t57.5 -136h-2q0 -47 -26 -93t-69 -79q-47 33 -107.5 55.5t-123.5 38.5q-72 18 -150.5 33.5t-154.5 32.5 q-162 37 -248 82t-86 122z" />
<glyph unicode="&#xa8;" d="M209 1247h137v260h-137v-260zM676 1247l139 2v258h-139v-260z" />
<glyph unicode="&#xa9;" horiz-adv-x="2064" d="M225 772q0 -166 63.5 -313.5t172 -257t256 -173t313.5 -63.5t313.5 63.5t256 173t172 257t63.5 313.5t-63.5 312.5t-172 256t-255 173t-312.5 63.5t-313.5 -63.5t-257 -172t-173 -256t-63.5 -313.5zM365 772q0 137 52 260t143 213t212 143.5t258 53.5t259 -53.5 t213 -143.5t144.5 -213t53.5 -260h-2q0 -139 -52.5 -261t-143.5 -213t-212 -144.5t-258 -53.5t-259 53.5t-212 144.5t-143 213t-53 261zM561 776q0 -242 146 -383q68 -70 157.5 -107.5t198.5 -37.5q53 0 106.5 11t85.5 28q41 16 84.5 45t100.5 88l-94 100q-82 -88 -142 -108 q-29 -10 -63.5 -19.5t-81.5 -9.5q-66 0 -131.5 22.5t-122.5 82t-80 132t-23 156.5q0 111 30 176.5t69 104.5q59 57 122.5 82.5t135.5 25.5q25 0 41 -1t30.5 -4t29 -7t32.5 -10q23 -8 55.5 -28.5t81.5 -67.5l94 102q-63 55 -100 78.5t-78 40.5q-86 33 -182 32 q-111 0 -199 -38.5t-157 -104.5q-72 -70 -109 -167t-37 -214z" />
<glyph unicode="&#xaa;" horiz-adv-x="931" d="M109 991q0 -70 33.5 -113.5t83.5 -68.5t106.5 -34t99.5 -9q55 0 122 16.5t126 53.5q8 -12 18.5 -24.5t30.5 -31.5l113 2v78q-33 25 -40 35t-7 23v290q0 55 -3.5 113.5t-31.5 108.5q-35 55 -104.5 82.5t-180.5 27.5q-80 0 -133 -7t-86 -19.5t-50.5 -26.5t-25.5 -27l2 -151 l24 15q23 15 64 33.5t95.5 34t115.5 15.5q80 0 115 -16.5t45 -32.5q10 -14 13 -29.5t3 -32.5q-133 -12 -235.5 -32.5t-172 -55t-105 -88t-35.5 -129.5zM246 995q0 27 16.5 52.5t61.5 47t125.5 40t209.5 28.5l-2 -182q-98 -82 -239 -82q-27 0 -56.5 3t-55 13.5t-43 29 t-17.5 50.5z" />
<glyph unicode="&#xab;" horiz-adv-x="1118" d="M119 532l499 -481v185l-319 319l319 319v185l-499 -481v-46zM455 532l499 -481v185l-319 319l319 319v185l-499 -481v-46z" />
<glyph unicode="&#xac;" horiz-adv-x="1638" d="M244 627h1013v-308l138 3v440h-1151v-135z" />
<glyph unicode="&#xad;" horiz-adv-x="817" d="M-18 666h680v137h-680v-137z" />
<glyph unicode="&#xae;" horiz-adv-x="2064" d="M227 772q0 -166 63.5 -313.5t172 -257t256 -173t313.5 -63.5t313.5 63.5t256 173t172 257t63.5 313.5t-63.5 312.5t-172 256t-255 173t-312.5 63.5t-313.5 -63.5t-257 -172t-173 -256t-63.5 -313.5zM367 772q0 137 52 260t143 213t212 143.5t258 53.5t259 -53.5 t213 -143.5t144.5 -213t53.5 -260q0 -133 -48 -249.5t-132 -209.5l-336 392q37 12 77 32.5t72.5 56t54 86t21.5 119.5q0 59 -22.5 115.5t-79.5 102.5q-53 43 -138.5 66.5t-207.5 23.5h-244v-1055h143v434h158l371 -434h65q-86 -72 -193.5 -112t-228.5 -40q-137 0 -259 53.5 t-212 144.5t-143 213t-53 261zM860 819v352h103q154 0 230.5 -40.5t76.5 -139.5h-2q0 -70 -53.5 -121t-178.5 -51h-176z" />
<glyph unicode="&#xaf;" d="M195 1305l634 2v137h-634v-139z" />
<glyph unicode="&#xb0;" horiz-adv-x="1036" d="M215 1237q0 -63 23.5 -118.5t64.5 -96.5t96.5 -64.5t118.5 -23.5t118.5 23.5t96.5 64.5t64.5 96.5t23.5 118.5q0 61 -23.5 116.5t-64.5 97.5t-96 65.5t-117 23.5q-63 0 -118.5 -23.5t-97.5 -64.5t-65.5 -96.5t-23.5 -118.5zM358 1237q0 68 47.5 115t112.5 47 q33 0 62.5 -13.5t52 -35t36 -51t13.5 -62.5h-2q0 -66 -47 -114t-113 -48t-114 48t-48 114z" />
<glyph unicode="&#xb1;" horiz-adv-x="1638" d="M244 -6h1151v135h-1151v-135zM244 496h508v-371h137v373h506v133h-508v379h-137v-381h-506v-133z" />
<glyph unicode="&#xb2;" horiz-adv-x="1112" d="M117 627l63 -54l791 2v138h-668q59 82 150.5 133t191.5 98q57 27 114.5 54.5t102.5 64.5t73 86t28 115q0 74 -33 126t-88.5 85.5t-128 49t-154.5 15.5q-178 0 -275.5 -71.5t-136.5 -208.5l138 -21q10 31 25.5 61.5t44 53t75.5 37t121 14.5q80 0 132 -12.5t84 -33t45 -45 t13 -48.5q0 -63 -69 -115q-18 -12 -41 -25.5t-47 -25.5q-27 -12 -55.5 -24.5t-57.5 -26.5q-59 -27 -122.5 -61t-123 -82t-109.5 -116.5t-83 -162.5z" />
<glyph unicode="&#xb3;" horiz-adv-x="1112" d="M111 844q33 -82 76.5 -137.5t98 -89t121 -48t144.5 -14.5q193 0 300 76t107 213q0 96 -48 154.5t-111 86.5q53 31 82.5 81.5t29.5 125.5q0 37 -13 80t-53 80t-110.5 62.5t-183.5 25.5q-74 0 -137.5 -12t-114.5 -43t-88 -84t-55 -135l133 -29q14 49 33.5 81t50 51.5 t75 27.5t105.5 8q82 0 127 -15.5t65.5 -37t23.5 -42t3 -28.5q0 -23 -15.5 -47.5t-53 -45t-104.5 -33.5t-171 -13v-131q109 0 184.5 -11.5t121.5 -33t66.5 -50t20.5 -63.5q0 -31 -12 -60.5t-42 -53t-79 -37t-123 -13.5q-70 0 -121 10.5t-88 34t-63.5 59t-48.5 87.5z" />
<glyph unicode="&#xb4;" d="M326 1165h192l467 334h-252z" />
<glyph unicode="&#xb5;" horiz-adv-x="1476" d="M184 -514h144v565q111 -82 286 -82q145 0 299 62q59 23 114.5 53.5t117.5 71.5q-2 -29 -3 -69t-2 -64.5t-1 -28.5h143v1192h-143v-873q-72 -53 -143.5 -92t-125.5 -61q-68 -29 -132 -42.5t-120 -13.5q-98 0 -151 25t-82 51q-37 37 -48 83t-11 106v817h-142v-1700z" />
<glyph unicode="&#xb6;" horiz-adv-x="1339" d="M61 1098q0 -127 49.5 -214t127.5 -141q70 -47 152.5 -68.5t172.5 -25.5v-1130h137v1894h220v-1894h137v2029h-484q-117 0 -211 -32.5t-159 -92.5q-68 -59 -105 -143t-37 -182z" />
<glyph unicode="&#xb7;" horiz-adv-x="532" d="M178 563q0 -37 25.5 -62.5t62.5 -25.5t62.5 25.5t25.5 62.5q0 35 -25.5 61.5t-60.5 26.5q-37 0 -63.5 -25.5t-26.5 -62.5z" />
<glyph unicode="&#xb8;" d="M229 -291q70 -35 130.5 -54.5t134.5 -19.5q47 0 95 9.5t87 31t63.5 56.5t24.5 84q0 43 -16.5 71.5t-41 48t-56.5 29.5t-62 15l92 116h-172l-162 -209l96 -51q23 6 54.5 13.5t60.5 8.5t49.5 -7.5t20.5 -34.5q0 -16 -13.5 -25.5t-33 -13.5t-43 -5t-43.5 -1q-47 0 -89.5 11 t-95.5 38z" />
<glyph unicode="&#xb9;" horiz-adv-x="1112" d="M291 1399l51 -125l190 88v-789l138 2v957h-80z" />
<glyph unicode="&#xba;" horiz-adv-x="950" d="M59 1155q0 -90 32 -161.5t88.5 -122t132 -78t165.5 -27.5t167 26.5t133.5 78t88 122t31.5 160.5q0 88 -31.5 159.5t-88 123t-133.5 78t-167 26.5t-165.5 -26.5t-132 -77t-88.5 -122t-32 -159.5zM197 1155q0 113 73.5 183.5t204.5 70.5q135 0 210 -70.5t75 -183.5h-2 q0 -113 -73 -183.5t-208 -70.5q-133 0 -206.5 70.5t-73.5 183.5z" />
<glyph unicode="&#xbb;" horiz-adv-x="1118" d="M164 51l500 481v46l-500 481v-185l319 -319l-319 -319v-185zM500 51l499 481v46l-499 481v-185l319 -319l-319 -319v-185z" />
<glyph unicode="&#xbc;" horiz-adv-x="2377" d="M291 1399l51 -125l190 88v-789l138 2v957h-80zM301 -31h178l1331 1571h-176zM1249 233h561v-239h138v242h192v133h-194v581h-109l-588 -622v-95zM1473 367q86 92 168.5 180t168.5 178v-154v-204h-337z" />
<glyph unicode="&#xbd;" horiz-adv-x="2377" d="M254 -31h178l1331 1571h-176zM274 1448l41 -127l179 51v-799l137 2v957h-78zM1309 47l63 -53h791v139h-668q59 82 150.5 133t191.5 99q57 27 114.5 54t102.5 64t72.5 86t27.5 115q0 74 -32.5 126t-88 86t-128 49.5t-154.5 15.5q-178 0 -275.5 -72t-136.5 -209l138 -21 q10 31 25.5 62t44 53.5t75.5 36.5t121 14q80 0 132 -12t84 -32.5t45 -45t13 -49.5q0 -63 -69 -115q-18 -12 -41 -25.5t-47 -25.5q-27 -12 -55.5 -24.5t-57.5 -26.5q-59 -27 -122.5 -60.5t-123 -81.5t-110 -117t-82.5 -163z" />
<glyph unicode="&#xbe;" horiz-adv-x="2551" d="M111 844q33 -82 76.5 -137.5t98 -89t121 -48t144.5 -14.5q193 0 300 76t107 213q0 96 -48 154.5t-111 86.5q53 31 82.5 81.5t29.5 125.5q0 37 -13 80t-53 80t-110.5 62.5t-183.5 25.5q-74 0 -137.5 -12t-114.5 -43t-88 -84t-55 -135l133 -29q14 49 33.5 81t50 51.5 t75 27.5t105.5 8q82 0 127 -15.5t65.5 -37t23.5 -42t3 -28.5q0 -23 -15.5 -47.5t-53 -45t-104.5 -33.5t-171 -13v-131q109 0 184.5 -11.5t121.5 -33t66.5 -50t20.5 -63.5q0 -31 -12 -60.5t-42 -53t-79 -37t-123 -13.5q-70 0 -121 10.5t-88 34t-63.5 59t-48.5 87.5zM508 -31 h178l1331 1571h-176zM1423 233h562v-239h137v242h192v133h-194v581h-109l-588 -622v-95zM1647 367q86 92 169 180t169 178v-154v-204h-338z" />
<glyph unicode="&#xbf;" horiz-adv-x="1202" d="M-16 -88q0 -115 52 -188.5t136 -117.5t191.5 -61.5t218.5 -17.5q141 0 247.5 22.5t186.5 67.5t135 109.5t94 148.5l-129 51q-61 -127 -184 -195.5t-342 -68.5q-104 0 -189.5 14.5t-146.5 44t-95 75.5t-34 112q0 47 11 84t38 69.5t72 63.5t114 63q111 53 184.5 105.5 t114.5 119t55.5 152.5t8.5 209h-129q2 -92 -6 -157.5t-38 -116.5t-87 -94.5t-152 -88.5q-86 -41 -148.5 -82.5t-102.5 -89t-58 -104.5t-18 -129zM584 827l143 2v265h-143v-267z" />
<glyph unicode="&#xc0;" horiz-adv-x="1415" d="M-27 -6h158l225 508h699l227 -508h160l-688 1554h-95zM231 1851l560 -286l239 2q23 -14 6.5 -4t-58.5 34.5t-100.5 60.5t-117 72.5t-111.5 68.5t-84 52h-334zM418 641l155 356l66 156t68 158q35 -84 68.5 -163t68.5 -159l151 -348h-577z" />
<glyph unicode="&#xc1;" horiz-adv-x="1415" d="M-27 -6h158l225 508h699l227 -508h160l-688 1554h-95zM395 1565h240l559 286h-334zM418 641l155 356l66 156t68 158q35 -84 68.5 -163t68.5 -159l151 -348h-577z" />
<glyph unicode="&#xc2;" horiz-adv-x="1415" d="M-27 -6h158l225 508h699l227 -508h160l-688 1554h-95zM168 1548h278l263 90l30 -10l92 -31l140 -49l278 2l-528 238h-25zM418 641l155 356l66 156t68 158q35 -84 68.5 -163t68.5 -159l151 -348h-577z" />
<glyph unicode="&#xc3;" horiz-adv-x="1415" d="M-27 -6h158l225 508h699l227 -508h160l-688 1554h-95zM330 1647l96 -95q43 53 70.5 65.5t66.5 12.5q29 0 57.5 -5t43.5 -9l45 -14q41 -14 75.5 -18.5t63.5 -4.5q61 0 119.5 24.5t117.5 98.5l-94 94q-23 -27 -41 -42t-34.5 -23.5t-33 -11.5t-34.5 -3q-29 0 -57.5 5 t-42.5 10l-46 14q-41 14 -75.5 18t-63.5 4q-59 0 -116.5 -23.5t-116.5 -96.5zM418 641l155 356l66 156t68 158q35 -84 68.5 -163t68.5 -159l151 -348h-577z" />
<glyph unicode="&#xc4;" horiz-adv-x="1415" d="M-27 -6h158l225 508h699l227 -508h160l-688 1554h-95zM401 1524h138v250h-138v-250zM418 641l155 356l66 156t68 158q35 -84 68.5 -163t68.5 -159l151 -348h-577zM877 1524l139 2v248h-139v-250z" />
<glyph unicode="&#xc5;" horiz-adv-x="1415" d="M-27 -6h158l225 508h699l227 -508h160l-654 1476q49 16 89.5 57.5t40.5 106.5q0 45 -20.5 79t-51.5 56.5t-68 32.5t-69 10q-33 0 -70 -10t-67.5 -32.5t-51 -56.5t-20.5 -79q0 -66 39 -105.5t88 -58.5zM418 639l155 358l66 156t68 158q35 -84 68.5 -163t68.5 -159 l151 -350h-577zM637 1634q0 12 14.5 27.5t55.5 15.5t55 -15t14 -28h-2q0 -10 -11 -26.5t-54 -16.5q-45 0 -58.5 16.5t-13.5 26.5z" />
<glyph unicode="&#xc6;" horiz-adv-x="2293" d="M-123 -6h176l396 508h630v-508h1082v141h-938v600h739v139h-739v535h909v139h-1047zM555 641l276 356q63 80 125 159t123 161v-293v-383h-524z" />
<glyph unicode="&#xc7;" horiz-adv-x="1728" d="M113 772q0 -186 65.5 -335.5t186.5 -262.5q80 -76 200.5 -131t272.5 -72l-80 -110l92 -51q94 18 152.5 13t58.5 -46l-4 -9q-4 -10 -20.5 -20t-48.5 -18.5t-87 -8.5q-53 0 -99 12.5t-100 37.5l-77 -109q76 -41 142.5 -58.5t143.5 -17.5q131 0 211 51.5t80 139.5 q0 45 -18.5 76.5t-48 53t-65.5 33t-73 15.5l9 12q117 8 213 45t175 93.5t142.5 124t112.5 137.5l-117 82q-41 -59 -96.5 -120t-127 -112t-160.5 -83t-196 -32q-133 0 -259 41t-222 124t-154.5 208t-58.5 295q0 180 61.5 307t162 208t226.5 118t255 37q184 0 307 -86 t209 -221l123 73q-53 82 -117 150.5t-142.5 118t-173 76t-206.5 26.5q-184 0 -338 -56.5t-271 -162.5q-115 -106 -178 -255t-63 -331z" />
<glyph unicode="&#xc8;" horiz-adv-x="1472" d="M178 1790l559 -287l240 2l-465 285h-334zM256 -6h1083v141h-938v600h740v139h-740v535h910v139h-1055v-1554z" />
<glyph unicode="&#xc9;" horiz-adv-x="1472" d="M256 -6h1083v141h-938v600h740v139h-740v535h910v139h-1055v-1554zM506 1606h239l560 286h-334z" />
<glyph unicode="&#xca;" horiz-adv-x="1472" d="M217 1610h279l262 90l30 -10l93 -31l139 -49l278 2l-528 237h-25zM256 -6h1083v141h-938v600h740v139h-740v535h910v139h-1055v-1554z" />
<glyph unicode="&#xcb;" horiz-adv-x="1472" d="M256 -6h1083v141h-938v600h740v139h-740v535h910v139h-1055v-1554zM471 1606h137v249h-137v-249zM946 1606l139 2v247h-139v-249z" />
<glyph unicode="&#xcc;" horiz-adv-x="700" d="M-127 1851l559 -286l240 2l-465 284h-334zM276 -6h146v1554h-146v-1554z" />
<glyph unicode="&#xcd;" horiz-adv-x="700" d="M37 1565h239l560 286h-334zM276 -6h148v1554h-148v-1554z" />
<glyph unicode="&#xce;" horiz-adv-x="700" d="M-190 1589h278l262 90l31 -10l92 -31l139 -49l279 2l-529 238h-24zM276 -6h146v1554h-146v-1554z" />
<glyph unicode="&#xcf;" horiz-adv-x="700" d="M43 1585h137v250h-137v-250zM276 -6h148v1554h-148v-1554zM518 1585l139 2v248h-139v-250z" />
<glyph unicode="&#xd0;" horiz-adv-x="1804" d="M72 731h186v-737h512q221 0 386 55t275.5 156.5t165 245t54.5 319.5t-54.5 320.5t-165 246t-275.5 156.5t-386 55h-514v-678h-184v-139zM401 133v600h521v139h-521v537h373q195 0 333 -46t227 -131t130 -203t41 -259h-2q0 -141 -41 -258t-129 -202t-226 -131t-333 -46 h-373z" />
<glyph unicode="&#xd1;" horiz-adv-x="1851" d="M256 -6h147q0 469 -1 793.5t-3 523.5q160 -199 422 -522.5t643 -794.5h131v1554h-147q0 -471 1 -794.5t3 -522.5q-158 195 -421 520.5t-644 796.5h-131v-1554zM547 1647l96 -95q43 53 70.5 65.5t66.5 12.5q29 0 57.5 -5t43.5 -9l45 -14q41 -14 75.5 -18.5t63.5 -4.5 q61 0 120 24.5t118 98.5l-95 94q-23 -27 -41 -42t-34.5 -23.5t-33 -11.5t-34.5 -3q-29 0 -57.5 5t-42.5 10l-45 14q-41 14 -76 18t-64 4q-59 0 -116.5 -23.5t-116.5 -96.5z" />
<glyph unicode="&#xd2;" horiz-adv-x="1925" d="M113 772q0 -203 71.5 -354.5t189.5 -251.5t271.5 -150.5t317.5 -50.5t317.5 49t271 149.5t189 252t71.5 354.5q0 182 -57 322.5t-155.5 240t-227.5 157.5t-270 77l-367 225h-334l437 -223q-145 -18 -276.5 -75.5t-231 -157t-158.5 -240t-59 -324.5zM258 772 q0 170 58.5 296t154.5 209t223 124t267 41q139 0 267 -41t225 -124t155.5 -209t58.5 -296h-2q0 -170 -57.5 -295t-154.5 -208t-224 -124t-266 -41t-266.5 41t-224.5 124t-155.5 208t-58.5 295z" />
<glyph unicode="&#xd3;" horiz-adv-x="1925" d="M113 772q0 -203 71.5 -354.5t189.5 -251.5t271.5 -150.5t317.5 -50.5t317.5 49t271 149.5t189 252t71.5 354.5q0 184 -58 325.5t-158.5 241t-231.5 156.5t-274 76l438 223h-334l-365 -225q-143 -18 -273 -75.5t-228.5 -157t-156.5 -240t-58 -322.5zM258 772 q0 170 58.5 296t154.5 209t223 124t267 41q139 0 267 -41t225 -124t155.5 -209t58.5 -296h-2q0 -170 -57.5 -295t-154.5 -208t-224 -124t-266 -41t-266.5 41t-224.5 124t-155.5 208t-58.5 295z" />
<glyph unicode="&#xd4;" horiz-adv-x="1925" d="M113 772q0 -203 71.5 -354.5t189.5 -251.5t271.5 -150.5t317.5 -50.5t317.5 49t271 149.5t189 252t71.5 354.5q0 205 -71.5 356.5t-189 252t-271.5 149.5t-317 49q-164 0 -317.5 -49t-271.5 -149.5t-189.5 -252t-71.5 -354.5zM258 772q0 170 58.5 296t154.5 209t223 124 t267 41q139 0 267 -41t225 -124t155.5 -209t58.5 -296h-2q0 -170 -57.5 -295t-154.5 -208t-224 -124t-266 -41t-266.5 41t-224.5 124t-155.5 208t-58.5 295zM420 1612h278l263 90l30 -10l92 -31l140 -49l278 2l-528 237h-25z" />
<glyph unicode="&#xd5;" horiz-adv-x="1925" d="M113 772q0 -203 71.5 -354.5t189.5 -251.5t271.5 -150.5t317.5 -50.5t317.5 49t271 149.5t189 252t71.5 354.5q0 205 -71.5 356.5t-189 252t-271.5 149.5t-317 49q-164 0 -317.5 -49t-271.5 -149.5t-189.5 -252t-71.5 -354.5zM258 772q0 170 58.5 296t154.5 209t223 124 t267 41q139 0 267 -41t225 -124t155.5 -209t58.5 -296h-2q0 -170 -57.5 -295t-154.5 -208t-224 -124t-266 -41t-266.5 41t-224.5 124t-155.5 208t-58.5 295zM582 1690l96 -95q43 53 70.5 65.5t66.5 12.5q29 0 57.5 -5t42.5 -9l46 -14q41 -14 75.5 -18.5t63.5 -4.5 q61 0 119.5 25.5t117.5 97.5l-94 94q-23 -27 -41 -42t-34.5 -23.5t-33 -11.5t-34.5 -3q-29 0 -57.5 5t-43.5 10l-45 14q-41 14 -75.5 18t-63.5 4q-59 0 -116.5 -23.5t-116.5 -96.5z" />
<glyph unicode="&#xd6;" horiz-adv-x="1925" d="M113 772q0 -203 71.5 -354.5t189.5 -251.5t271.5 -150.5t317.5 -50.5t317.5 49t271 149.5t189 252t71.5 354.5q0 205 -71.5 356.5t-189 252t-271.5 149.5t-317 49q-164 0 -317.5 -49t-271.5 -149.5t-189.5 -252t-71.5 -354.5zM258 772q0 170 58.5 296t154.5 209t223 124 t267 41q139 0 267 -41t225 -124t155.5 -209t58.5 -296h-2q0 -170 -57.5 -295t-154.5 -208t-224 -124t-266 -41t-266.5 41t-224.5 124t-155.5 208t-58.5 295zM653 1587h138v250h-138v-250zM1128 1587l140 2v248h-140v-250z" />
<glyph unicode="&#xd7;" horiz-adv-x="1638" d="M272 111l95 -95l452 453l453 -453l94 95l-453 452l453 453l-94 94l-453 -453l-452 453l-95 -94l453 -453z" />
<glyph unicode="&#xd8;" horiz-adv-x="1925" d="M68 51l98 -106l221 211q115 -94 261.5 -142.5t312.5 -48.5q164 0 317.5 49t272 149.5t190 252t71.5 354.5q0 182 -54 309t-126 213l226 199l-99 106l-221 -211q-115 94 -262.5 142.5t-312.5 48.5q-164 0 -317.5 -49t-271.5 -149.5t-189.5 -252t-71.5 -356.5 q0 -182 54 -308t124 -212zM258 770q0 170 58.5 296t155.5 209t224 124t267 41q98 0 182 -18.5t143 -43.5q45 -18 82 -38.5t68 -43.5l-1047 -960q-63 86 -98 195.5t-35 238.5zM487 246l1047 960q61 -86 97 -196.5t36 -239.5q0 -170 -58.5 -295t-155.5 -208t-224 -124 t-266 -41q-98 0 -182.5 18.5t-143.5 43.5q-47 18 -84 38.5t-66 43.5z" />
<glyph unicode="&#xd9;" horiz-adv-x="1705" d="M236 633q0 -188 36.5 -316.5t111.5 -206t190.5 -111.5t275.5 -34q162 0 279.5 34t193.5 111.5t111.5 206t35.5 316.5v915h-147v-911q0 -150 -20.5 -252t-73.5 -164.5t-144.5 -90.5t-234.5 -28q-139 0 -229.5 28t-143.5 90.5t-74.5 164.5t-21.5 252v911h-145v-915z M295 1851l559 -286l240 2l-465 284h-334z" />
<glyph unicode="&#xda;" horiz-adv-x="1705" d="M236 633q0 -188 36.5 -316.5t111.5 -206t190.5 -111.5t275.5 -34q162 0 279.5 34t193.5 111.5t111.5 206t35.5 316.5v915h-147v-911q0 -150 -20.5 -252t-73.5 -164.5t-144.5 -90.5t-234.5 -28q-139 0 -229.5 28t-143.5 90.5t-74.5 164.5t-21.5 252v911h-145v-915z M623 1544h239l559 287h-334z" />
<glyph unicode="&#xdb;" horiz-adv-x="1705" d="M236 633q0 -188 36.5 -316.5t111.5 -206t190.5 -111.5t275.5 -34q162 0 279.5 34t193.5 111.5t111.5 206t35.5 316.5v915h-147v-911q0 -150 -20.5 -252t-73.5 -164.5t-144.5 -90.5t-234.5 -28q-139 0 -229.5 28t-143.5 90.5t-74.5 164.5t-21.5 252v911h-145v-915z M313 1589h279l262 90l31 -10l92 -31l139 -49l279 2l-529 238h-24z" />
<glyph unicode="&#xdc;" horiz-adv-x="1705" d="M236 633q0 -188 36.5 -316.5t111.5 -206t190.5 -111.5t275.5 -34q162 0 279.5 34t193.5 111.5t111.5 206t35.5 316.5v915h-147v-911q0 -150 -20.5 -252t-73.5 -164.5t-144.5 -90.5t-234.5 -28q-139 0 -229.5 28t-143.5 90.5t-74.5 164.5t-21.5 252v911h-145v-915z M547 1483h137v250h-137v-250zM1022 1483l139 2v248h-139v-250z" />
<glyph unicode="&#xdd;" horiz-adv-x="1433" d="M-29 1548l674 -895v-659h146v659l671 895h-176l-311 -413q-66 -86 -129.5 -172t-128.5 -175q-66 86 -129.5 171t-128.5 174l-312 415h-176zM485 1503h240l559 287h-334z" />
<glyph unicode="&#xde;" horiz-adv-x="1660" d="M256 -6h147v350h336q436 0 642 122.5t206 358.5q0 223 -195.5 348t-611.5 125h-379v250h-145v-1554zM401 481v678h396q193 0 317.5 -28.5t197 -75.5t101.5 -107.5t29 -122.5h-2q0 -70 -31 -132t-109.5 -109t-215 -75t-349.5 -28h-334z" />
<glyph unicode="&#xdf;" horiz-adv-x="1515" d="M195 -498h143v1567q0 80 13.5 170t58.5 165t130 124t228 49q121 0 187.5 -24.5t99 -57.5t39 -65.5t6.5 -49.5q0 -59 -19.5 -118.5t-72 -107.5t-142.5 -79t-233 -31h-55v-114h61q178 0 302 -24.5t201 -74t110.5 -121t33.5 -165.5q0 -86 -26.5 -162t-89 -132t-165 -89 t-253.5 -33h-113v-135h115q197 0 325.5 47t206.5 124t109.5 177.5t31.5 204.5q0 109 -30.5 188.5t-81.5 136t-118 91t-138 53.5q49 35 82 70.5t51 64.5q20 29 29.5 73t13.5 79q4 23 5 42t1 29q0 41 -13.5 99.5t-62.5 111.5t-143 90t-254 37q-184 0 -297 -64.5t-174 -160.5 t-81.5 -208t-20.5 -206v-1571z" />
<glyph unicode="&#xe0;" horiz-adv-x="1337" d="M82 322q0 -68 26.5 -131.5t88 -112.5t161 -79t244.5 -30q39 0 90 6.5t108.5 21.5t116 42t109.5 67q10 -25 25.5 -51t46.5 -61h121v74q-23 27 -36.5 43t-20.5 33.5t-9 39t-2 58.5v573q0 195 -119 295t-377 100q-76 0 -145.5 -9t-106 -17t-41.5 -10l15 -146q4 2 32.5 12.5 t94 22.5t149.5 12q106 0 176 -17.5t111 -51t56.5 -84t15.5 -117.5v-6q-215 -18 -387 -48t-293 -82.5t-185.5 -136t-64.5 -210.5zM197 1581l467 -334l192 2l-407 332h-252zM223 324q0 78 44 133t139.5 94t245 65.5t360.5 45.5l-2 -390q-47 -53 -102.5 -85.5t-112 -51 t-106.5 -25t-83 -6.5q-125 0 -199.5 23t-115.5 56.5t-54.5 71.5t-13.5 69z" />
<glyph unicode="&#xe1;" horiz-adv-x="1337" d="M82 322q0 -68 26.5 -131.5t88 -112.5t161 -79t244.5 -30q39 0 90 6.5t108.5 21.5t116 42t109.5 67q10 -25 25.5 -51t46.5 -61h121v74q-23 27 -36.5 43t-20.5 33.5t-9 39t-2 58.5v573q0 195 -119 295t-377 100q-76 0 -145.5 -9t-106 -17t-41.5 -10l15 -146q4 2 32.5 12.5 t94 22.5t149.5 12q106 0 176 -17.5t111 -51t56.5 -84t15.5 -117.5v-6q-215 -18 -387 -48t-293 -82.5t-185.5 -136t-64.5 -210.5zM223 324q0 78 44 133t139.5 94t245 65.5t360.5 45.5l-2 -390q-47 -53 -102.5 -85.5t-112 -51t-106.5 -25t-83 -6.5q-125 0 -199.5 23 t-115.5 56.5t-54.5 71.5t-13.5 69zM483 1247h193l467 334h-252z" />
<glyph unicode="&#xe2;" horiz-adv-x="1337" d="M82 322q0 -68 26.5 -131.5t88 -112.5t161 -79t244.5 -30q39 0 90 6.5t108.5 21.5t116 42t109.5 67q10 -25 25.5 -51t46.5 -61h121v74q-23 27 -36.5 43t-20.5 33.5t-9 39t-2 58.5v573q0 195 -119 295t-377 100q-76 0 -145.5 -9t-106 -17t-41.5 -10l15 -146q4 2 32.5 12.5 t94 22.5t149.5 12q106 0 176 -17.5t111 -51t56.5 -84t15.5 -117.5v-6q-215 -18 -387 -48t-293 -82.5t-185.5 -136t-64.5 -210.5zM217 1245h215l238 131l237 -131l215 2l-436 289h-33zM223 324q0 78 44 133t139.5 94t245 65.5t360.5 45.5l-2 -390q-47 -53 -102.5 -85.5 t-112 -51t-106.5 -25t-83 -6.5q-125 0 -199.5 23t-115.5 56.5t-54.5 71.5t-13.5 69z" />
<glyph unicode="&#xe3;" horiz-adv-x="1337" d="M82 322q0 -68 26.5 -131.5t88 -112.5t161 -79t244.5 -30q39 0 90 6.5t108.5 21.5t116 42t109.5 67q10 -25 25.5 -51t46.5 -61h121v74q-23 27 -36.5 43t-20.5 33.5t-9 39t-2 58.5v573q0 195 -119 295t-377 100q-76 0 -145.5 -9t-106 -17t-41.5 -10l15 -146q4 2 32.5 12.5 t94 22.5t149.5 12q106 0 176 -17.5t111 -51t56.5 -84t15.5 -117.5v-6q-215 -18 -387 -48t-293 -82.5t-185.5 -136t-64.5 -210.5zM223 324q0 78 44 133t139.5 94t245 65.5t360.5 45.5l-2 -390q-47 -53 -102.5 -85.5t-112 -51t-106.5 -25t-83 -6.5q-125 0 -199.5 23 t-115.5 56.5t-54.5 71.5t-13.5 69zM324 1352l94 -95q43 49 66.5 60.5t56.5 11.5q27 0 53.5 -5t40.5 -9l41 -12q37 -12 69.5 -16.5t57.5 -4.5q53 0 106.5 21.5t110.5 93.5l-94 94q-43 -49 -66.5 -60.5t-56.5 -11.5q-27 0 -53.5 5.5t-40.5 9.5l-41 12q-37 12 -70 16t-57 4 q-53 0 -106.5 -21.5t-110.5 -92.5z" />
<glyph unicode="&#xe4;" horiz-adv-x="1337" d="M82 322q0 -68 26.5 -131.5t88 -112.5t161 -79t244.5 -30q39 0 90 6.5t108.5 21.5t116 42t109.5 67q10 -25 25.5 -51t46.5 -61h121v74q-23 27 -36.5 43t-20.5 33.5t-9 39t-2 58.5v573q0 195 -119 295t-377 100q-76 0 -145.5 -9t-106 -17t-41.5 -10l15 -146q4 2 32.5 12.5 t94 22.5t149.5 12q106 0 176 -17.5t111 -51t56.5 -84t15.5 -117.5v-6q-215 -18 -387 -48t-293 -82.5t-185.5 -136t-64.5 -210.5zM223 324q0 78 44 133t139.5 94t245 65.5t360.5 45.5l-2 -390q-47 -53 -102.5 -85.5t-112 -51t-106.5 -25t-83 -6.5q-125 0 -199.5 23 t-115.5 56.5t-54.5 71.5t-13.5 69zM367 1247h137v260h-137v-260zM834 1247l139 2v258h-139v-260z" />
<glyph unicode="&#xe5;" horiz-adv-x="1337" d="M82 322q0 -68 26.5 -131.5t88 -112.5t161 -79t244.5 -30q39 0 90 6.5t108.5 21.5t116 42t109.5 67q10 -25 25.5 -51t46.5 -61h121v74q-23 27 -36.5 43t-20.5 33.5t-9 39t-2 58.5v573q0 195 -119 295t-377 100q-76 0 -145.5 -9t-106 -17t-41.5 -10l15 -146q4 2 32.5 12.5 t94 22.5t149.5 12q106 0 176 -17.5t111 -51t56.5 -84t15.5 -117.5v-6q-215 -18 -387 -48t-293 -82.5t-185.5 -136t-64.5 -210.5zM223 324q0 78 44 133t139.5 94t245 65.5t360.5 45.5v-390q-47 -53 -103.5 -85.5t-113 -51t-106.5 -25t-83 -6.5q-125 0 -199.5 23t-115.5 56.5 t-54.5 71.5t-13.5 69zM444 1423q0 -47 19.5 -79.5t50.5 -55t67.5 -33t69.5 -10.5t70 10.5t68.5 33t52 55t20.5 79.5q0 45 -20.5 79t-51 56.5t-67.5 33t-70 10.5t-69.5 -10.5t-67.5 -33t-51.5 -56.5t-20.5 -79zM582 1423q0 12 14 27.5t55 15.5t55.5 -15t14.5 -28h-2 q0 -10 -11.5 -26.5t-54.5 -16.5q-45 0 -58 16.5t-13 26.5z" />
<glyph unicode="&#xe6;" horiz-adv-x="2314" d="M82 322q0 -68 26.5 -131.5t88 -112.5t161 -79t244.5 -30q162 0 299 59.5t242 159.5q55 -68 122.5 -110.5t136 -67t134.5 -33t117 -8.5q66 0 147.5 12.5t158.5 30t144.5 34.5t106.5 29.5t41 12.5l-31 139q-20 -6 -81.5 -26.5t-142.5 -42t-174 -38t-177 -16.5 q-80 0 -163 23t-154 75t-119 137t-56 208h1096q0 160 -42 274.5t-122 200.5q-86 90 -197.5 139t-238.5 49q-184 0 -317.5 -70.5t-209.5 -178.5q-16 57 -50 103t-89 79t-136 50t-192 17q-123 0 -197.5 -7t-115.5 -18t-56.5 -25.5t-21.5 -29.5l33 -98l19 8q18 7 61 14 t110.5 14t165.5 7q111 0 181.5 -18.5t109.5 -53t53.5 -85t14.5 -113.5v-6q-215 -18 -387 -48t-293 -82.5t-185.5 -136t-64.5 -210.5zM223 324q0 78 44 133t139.5 94t245 65.5t360.5 45.5v-58q0 -170 59 -299q-78 -80 -198.5 -140.5t-266.5 -60.5q-125 0 -199.5 23 t-115.5 56.5t-54.5 71.5t-13.5 69zM1155 684q8 74 44 143.5t97.5 125t149.5 89t203 33.5q92 0 168.5 -31.5t135 -86t95.5 -126t49 -149.5v2h-942z" />
<glyph unicode="&#xe7;" horiz-adv-x="1378" d="M92 590q0 -145 45 -255t122 -185.5t178.5 -118.5t211.5 -56l-69 -88l96 -51q23 6 54.5 13.5t60 8.5t49 -7.5t20.5 -34.5q0 -16 -13 -25.5t-32.5 -13.5t-43 -5t-44.5 -1q-47 0 -89 11t-95 38l-80 -111q70 -35 130 -54.5t134 -19.5q47 0 95 9.5t87 31t63.5 56.5t24.5 84 q0 76 -46 111.5t-101 47.5q90 10 161.5 37t128 68t102.5 94.5t85 114.5l-127 63q-35 -55 -76 -101t-94 -78t-120.5 -50.5t-157.5 -18.5q-98 0 -192.5 28t-166 87.5t-116 151.5t-44.5 219q0 121 44.5 212t117 151.5t165.5 91t192 30.5q80 0 141 -13t110.5 -39t90.5 -65.5 t80 -93.5l122 72q-104 137 -229 205.5t-315 68.5q-121 0 -240 -36.5t-212 -113.5t-150.5 -193.5t-57.5 -276.5z" />
<glyph unicode="&#xe8;" horiz-adv-x="1396" d="M92 604q0 -156 48 -270.5t130 -194.5q94 -90 215 -130t246 -40q66 0 148 12.5t158.5 30t144 34.5t106.5 29.5t41 12.5l-31 139q-20 -6 -80.5 -26.5t-141.5 -42t-173 -38t-176 -16.5q-80 0 -163 23t-153.5 75t-118.5 137t-56 208l1095 -2q0 170 -46 284.5t-118 192.5 q-88 92 -199.5 140t-236.5 48q-141 0 -250.5 -43t-195.5 -116q-92 -80 -142.5 -193t-50.5 -254zM225 1581l467 -334l193 2l-408 332h-252zM238 684q8 80 47 150.5t103.5 125t151.5 85t191 30.5q92 0 169 -31.5t135.5 -86t95 -126t49.5 -149.5v2h-942z" />
<glyph unicode="&#xe9;" horiz-adv-x="1396" d="M92 604q0 -156 48 -270.5t130 -194.5q94 -90 215 -130t246 -40q66 0 148 12.5t158.5 30t144 34.5t106.5 29.5t41 12.5l-31 139q-20 -6 -80.5 -26.5t-141.5 -42t-173 -38t-176 -16.5q-80 0 -163 23t-153.5 75t-118.5 137t-56 208l1095 -2q0 170 -46 284.5t-118 192.5 q-88 92 -199.5 140t-236.5 48q-141 0 -250.5 -43t-195.5 -116q-92 -80 -142.5 -193t-50.5 -254zM238 684q8 80 47 150.5t103.5 125t151.5 85t191 30.5q92 0 169 -31.5t135.5 -86t95 -126t49.5 -149.5v2h-942zM512 1247h193l466 334h-251z" />
<glyph unicode="&#xea;" horiz-adv-x="1396" d="M92 604q0 -156 48 -270.5t130 -194.5q94 -90 215 -130t246 -40q66 0 148 12.5t158.5 30t144 34.5t106.5 29.5t41 12.5l-31 139q-20 -6 -80.5 -26.5t-141.5 -42t-173 -38t-176 -16.5q-80 0 -163 23t-153.5 75t-118.5 137t-56 208l1095 -2q0 170 -46 284.5t-118 192.5 q-88 92 -199.5 140t-236.5 48q-141 0 -250.5 -43t-195.5 -116q-92 -80 -142.5 -193t-50.5 -254zM238 684q8 80 47 150.5t103.5 125t151.5 85t191 30.5q92 0 169 -31.5t135.5 -86t95 -126t49.5 -149.5v2h-942zM246 1204h215l237 131l238 -131l215 2l-436 289h-33z" />
<glyph unicode="&#xeb;" horiz-adv-x="1396" d="M92 604q0 -156 48 -270.5t130 -194.5q94 -90 215 -130t246 -40q66 0 148 12.5t158.5 30t144 34.5t106.5 29.5t41 12.5l-31 139q-20 -6 -80.5 -26.5t-141.5 -42t-173 -38t-176 -16.5q-80 0 -163 23t-153.5 75t-118.5 137t-56 208l1095 -2q0 170 -46 284.5t-118 192.5 q-88 92 -199.5 140t-236.5 48q-141 0 -250.5 -43t-195.5 -116q-92 -80 -142.5 -193t-50.5 -254zM238 684q8 80 47 150.5t103.5 125t151.5 85t191 30.5q92 0 169 -31.5t135.5 -86t95 -126t49.5 -149.5v2h-942zM395 1247h137v260h-137v-260zM862 1247l139 2v258h-139v-260z " />
<glyph unicode="&#xec;" horiz-adv-x="573" d="M-104 1561l466 -334l193 2l-408 332h-251zM215 -6h141v1192h-141v-1192z" />
<glyph unicode="&#xed;" horiz-adv-x="573" d="M18 1227h193l467 334h-252zM215 -6h143v1192h-143v-1192z" />
<glyph unicode="&#xee;" horiz-adv-x="573" d="M-166 1204h215l238 131l237 -131l215 2l-436 289h-33zM215 -6h141v1192h-141v-1192z" />
<glyph unicode="&#xef;" horiz-adv-x="573" d="M-16 1247h137v260h-137v-260zM215 -6h143v1192h-143v-1192zM451 1247l139 2v258h-139v-260z" />
<glyph unicode="&#xf0;" horiz-adv-x="1513" d="M92 590q0 -123 41 -235.5t124 -198.5t208 -136.5t291 -50.5q156 0 279.5 47t205.5 140q39 43 72 90t57.5 108.5t37.5 141t13 188.5q0 121 -35.5 246t-103.5 233q-41 63 -97.5 124t-129.5 114l299 92l-125 100l-328 -100q-55 25 -151.5 44t-203 33.5t-207.5 25t-167 14.5 l-51 -119q223 -10 354 -27.5t209 -38.5l-403 -122l131 -99l473 146q117 -66 181 -132.5t99 -121.5l6 -9q-92 66 -199.5 94.5t-215.5 28.5q-137 0 -258 -42t-211 -120.5t-142.5 -194.5t-52.5 -263zM233 590q0 113 40 203t110 153.5t166 96t209 32.5q125 0 223 -39 t163.5 -103.5t100.5 -146t35 -168.5h-2q0 -90 -26.5 -181t-87 -164.5t-160 -121t-244.5 -47.5q-135 0 -234.5 40t-164 107.5t-96.5 156t-32 182.5z" />
<glyph unicode="&#xf1;" horiz-adv-x="1476" d="M195 -6h143v872q27 20 60.5 44t69.5 45.5t71.5 40t66.5 28.5q143 51 252 51q94 0 148.5 -23.5t85.5 -52.5q35 -35 47 -83t12 -105v-817h141v819q0 94 -24.5 160.5t-75.5 120.5q-113 117 -330 116q-147 0 -299 -59q-115 -45 -231 -125q2 29 3 68t2 63.5t1 28.5h-143v-1192 zM393 1352l94 -95q43 49 67 60.5t56 11.5q27 0 53.5 -5t41.5 -9l40 -12q37 -12 70 -16.5t57 -4.5q53 0 107 21.5t111 93.5l-95 94q-43 -49 -66.5 -60.5t-56.5 -11.5q-27 0 -53 5.5t-41 9.5l-41 12q-37 12 -69.5 16t-57.5 4q-53 0 -106 -21.5t-111 -92.5z" />
<glyph unicode="&#xf2;" horiz-adv-x="1513" d="M92 590q0 -123 42 -235.5t125 -198.5t208 -136.5t291 -50.5q172 0 297 53.5t205.5 139.5t120.5 197.5t40 228.5q0 147 -52 263t-142 195.5t-211 121.5t-258 42t-258 -42t-212 -120.5t-143.5 -194.5t-52.5 -263zM233 588q0 113 40 203t110 153.5t166 96t209 32.5 t208 -32.5t164.5 -96t109.5 -154t40 -202.5h-2q0 -96 -32 -183.5t-95.5 -155t-161.5 -107.5t-229 -40q-135 0 -234.5 40t-164 107.5t-96.5 156t-32 182.5zM285 1581l467 -334l192 2l-407 332h-252z" />
<glyph unicode="&#xf3;" horiz-adv-x="1513" d="M92 590q0 -123 42 -235.5t125 -198.5t208 -136.5t291 -50.5q172 0 297 53.5t205.5 139.5t120.5 197.5t40 228.5q0 147 -52 263t-142 195.5t-211 121.5t-258 42t-258 -42t-212 -120.5t-143.5 -194.5t-52.5 -263zM233 588q0 113 40 203t110 153.5t166 96t209 32.5 t208 -32.5t164.5 -96t109.5 -154t40 -202.5h-2q0 -96 -32 -183.5t-95.5 -155t-161.5 -107.5t-229 -40q-135 0 -234.5 40t-164 107.5t-96.5 156t-32 182.5zM571 1247h193l467 334h-252z" />
<glyph unicode="&#xf4;" horiz-adv-x="1513" d="M92 590q0 -123 42 -235.5t125 -198.5t208 -136.5t291 -50.5q172 0 297 53.5t205.5 139.5t120.5 197.5t40 228.5q0 147 -52 263t-142 195.5t-211 121.5t-258 42t-258 -42t-212 -120.5t-143.5 -194.5t-52.5 -263zM233 588q0 113 40 203t110 153.5t166 96t209 32.5 t208 -32.5t164.5 -96t109.5 -154t40 -202.5h-2q0 -96 -32 -183.5t-95.5 -155t-161.5 -107.5t-229 -40q-135 0 -234.5 40t-164 107.5t-96.5 156t-32 182.5zM305 1204h215l238 131l237 -131l215 2l-436 289h-33z" />
<glyph unicode="&#xf5;" horiz-adv-x="1513" d="M92 590q0 -123 42 -235.5t125 -198.5t208 -136.5t291 -50.5q172 0 297 53.5t205.5 139.5t120.5 197.5t40 228.5q0 147 -52 263t-142 195.5t-211 121.5t-258 42t-258 -42t-212 -120.5t-143.5 -194.5t-52.5 -263zM233 588q0 113 40 203t110 153.5t166 96t209 32.5 t208 -32.5t164.5 -96t109.5 -154t40 -202.5h-2q0 -96 -32 -183.5t-95.5 -155t-161.5 -107.5t-229 -40q-135 0 -234.5 40t-164 107.5t-96.5 156t-32 182.5zM412 1352l94 -95q43 49 66.5 60.5t56.5 11.5q27 0 53.5 -5t40.5 -9l41 -12q37 -12 69.5 -16.5t57.5 -4.5 q53 0 106.5 21.5t110.5 93.5l-94 94q-43 -49 -66.5 -60.5t-56.5 -11.5q-27 0 -53.5 5.5t-40.5 9.5l-41 12q-37 12 -70 16t-57 4q-53 0 -106.5 -21.5t-110.5 -92.5z" />
<glyph unicode="&#xf6;" horiz-adv-x="1513" d="M113 590q0 -123 41 -235.5t123.5 -198.5t207.5 -136.5t291 -50.5q172 0 297 53.5t206 139.5t121 197.5t40 228.5q0 147 -52.5 263t-142.5 195.5t-211 121.5t-258 42t-258 -42t-211 -120.5t-142 -194.5t-52 -263zM254 588q0 113 39 203t108.5 153.5t166 96t208.5 32.5 q113 0 208 -32.5t165 -96t109.5 -153.5t39.5 -203q0 -96 -31.5 -183.5t-96 -155t-162 -107.5t-230.5 -40q-135 0 -233.5 40t-163 107.5t-96 156t-31.5 182.5zM475 1247h137v260h-137v-260zM942 1247l137 2v258h-137v-260z" />
<glyph unicode="&#xf7;" horiz-adv-x="1638" d="M246 498h1151v135h-1151v-135zM731 854q0 -37 25.5 -62.5t62.5 -25.5t62.5 25.5t25.5 62.5q0 35 -25.5 61.5t-60.5 26.5q-37 0 -63.5 -25.5t-26.5 -62.5zM733 276q0 -37 25.5 -62.5t62.5 -25.5t62.5 25.5t25.5 62.5q0 35 -25.5 62t-60.5 27q-37 0 -63.5 -26t-26.5 -63z " />
<glyph unicode="&#xf8;" horiz-adv-x="1513" d="M2 49l88 -104l209 178q29 -27 71 -54.5t97 -50t126 -37t161 -14.5q172 0 298 53.5t207.5 140.5t121.5 198.5t40 228.5q0 98 -28.5 190t-89.5 178l208 170l-88 105l-209 -178q-72 66 -181 110.5t-273 44.5q-139 0 -260 -42t-212 -120.5t-143.5 -194.5t-52.5 -263 q0 -98 29 -190.5t90 -178.5zM233 588q0 113 39 203t110 153.5t168 96t212 32.5q70 0 131 -11t108 -30q41 -16 67.5 -30.5t49.5 -30.5l-805 -672q-29 43 -54.5 113.5t-25.5 175.5zM395 205l807 672q29 -43 53.5 -114t24.5 -175q0 -94 -30.5 -182.5t-95 -156t-164 -107.5 t-236.5 -40q-72 0 -134.5 11.5t-107.5 29.5q-39 16 -66.5 30.5t-50.5 31.5z" />
<glyph unicode="&#xf9;" horiz-adv-x="1476" d="M184 367q0 -94 24.5 -161t76.5 -120q113 -117 329 -117q145 0 299 62q59 23 114.5 53.5t117.5 71.5q-2 -29 -3 -69t-2 -64.5t-1 -28.5h143v1192h-143v-873q-72 -53 -143.5 -92t-125.5 -61q-68 -29 -132 -42.5t-120 -13.5q-98 0 -151 25t-80 51q-37 35 -49 81t-12 108v817 h-142v-819zM266 1561l467 -334l193 2l-408 332h-252z" />
<glyph unicode="&#xfa;" horiz-adv-x="1476" d="M184 367q0 -94 24.5 -161t76.5 -120q113 -117 329 -117q145 0 299 62q59 23 114.5 53.5t117.5 71.5q-2 -29 -3 -69t-2 -64.5t-1 -28.5h143v1192h-143v-873q-72 -53 -143.5 -92t-125.5 -61q-68 -29 -132 -42.5t-120 -13.5q-98 0 -151 25t-80 51q-37 35 -49 81t-12 108v817 h-142v-819zM553 1227h192l467 334h-251z" />
<glyph unicode="&#xfb;" horiz-adv-x="1476" d="M184 367q0 -94 24.5 -161t76.5 -120q113 -117 329 -117q145 0 299 62q59 23 114.5 53.5t117.5 71.5q-2 -29 -3 -69t-2 -64.5t-1 -28.5h143v1192h-143v-873q-72 -53 -143.5 -92t-125.5 -61q-68 -29 -132 -42.5t-120 -13.5q-98 0 -151 25t-80 51q-37 35 -49 81t-12 108v817 h-142v-819zM287 1266h215l237 131l238 -131l215 2l-436 288h-33z" />
<glyph unicode="&#xfc;" horiz-adv-x="1476" d="M184 367q0 -94 24.5 -161t76.5 -120q113 -117 329 -117q145 0 299 62q59 23 114.5 53.5t117.5 71.5q-2 -29 -3 -69t-2 -64.5t-1 -28.5h143v1192h-143v-873q-72 -53 -143.5 -92t-125.5 -61q-68 -29 -132 -42.5t-120 -13.5q-98 0 -151 25t-80 51q-37 35 -49 81t-12 108v817 h-142v-819zM436 1247h137v260h-137v-260zM903 1247l139 2v258h-139v-260z" />
<glyph unicode="&#xfd;" horiz-adv-x="1353" d="M-51 -438q57 -35 91 -51.5t75 -26.5q35 -10 76.5 -17.5t95.5 -7.5q111 0 189.5 34t133.5 85q57 51 90 107.5t54 103.5l604 1397h-152l-229 -533q-45 -109 -93 -219t-96 -223l-278 444l-332 531h-166l709 -1129l-94 -217q-47 -102 -109 -162q-84 -84 -231 -84 q-39 0 -71 5.5t-60 13.5q-29 10 -58.5 25.5t-77.5 46.5zM573 1165h193l467 334h-252z" />
<glyph unicode="&#xfe;" horiz-adv-x="1513" d="M195 -514h143v627q37 -27 75 -49.5t72 -38.5q90 -37 163 -46.5t124 -9.5q156 0 276.5 53.5t196.5 135.5q90 98 128 210.5t38 225.5q0 131 -44 237.5t-118 186.5q-180 193 -477 192q-88 0 -161.5 -16t-137.5 -45q-41 -16 -74.5 -35.5t-62.5 -42.5v514h-141v-2099zM336 287 v608q43 43 93 77t99 56q61 29 122 38t122 9q125 0 218 -41t155 -108q61 -66 93 -152t32 -180h-2q0 -113 -35 -197t-90 -143q-72 -78 -168 -114t-203 -36q-74 0 -133 13.5t-102 32.5q-41 18 -91.5 49.5t-109.5 87.5z" />
<glyph unicode="&#xff;" horiz-adv-x="1353" d="M-51 -438q57 -35 91 -51.5t75 -26.5q35 -10 76.5 -17.5t95.5 -7.5q111 0 189.5 34t133.5 85q57 51 90 107.5t54 103.5l604 1395h-152l-229 -531q-45 -109 -93 -219t-96 -223l-278 444l-332 531h-166l709 -1129l-94 -217q-47 -102 -109 -162q-84 -84 -231 -84 q-39 0 -71 5.5t-60 13.5q-29 10 -58.5 25.5t-77.5 46.5zM422 1247h137v260h-137v-260zM889 1247l139 2v258h-139v-260z" />
<glyph unicode="&#x152;" horiz-adv-x="2521" d="M113 770q0 -188 65.5 -337.5t185 -253t287.5 -159t373 -55.5q160 0 242 11.5t114 19.5l1008 -2v141h-938v600h739v139h-739v535h909v139h-979q-37 8 -119.5 18.5t-236.5 10.5q-205 0 -373 -55.5t-287.5 -158.5t-185 -252.5t-65.5 -340.5zM258 770q0 158 53.5 283 t153.5 211t242.5 131t318.5 45q129 0 205 10t76 -2l-2 -1354q0 -12 -75 -1t-204 11q-176 0 -318.5 45.5t-242.5 130.5t-153.5 208.5t-53.5 281.5z" />
<glyph unicode="&#x153;" horiz-adv-x="2523" d="M92 590q0 -135 45 -249t128 -197t199 -129t257 -46q115 0 206 24.5t161.5 67.5t121 101.5t82.5 124.5q47 -96 116 -157.5t146.5 -96.5t156.5 -49.5t147 -14.5q66 0 147.5 12.5t158.5 30t144.5 34.5t106.5 29.5t41 12.5l-31 139q-20 -6 -80.5 -26.5t-141.5 -42t-173.5 -38 t-176.5 -16.5q-78 0 -160.5 23t-153.5 75t-121 137t-58 208h1098q0 168 -46.5 282.5t-117.5 192.5q-88 92 -200 140t-236 48q-109 0 -200 -25.5t-163 -70.5t-124 -103.5t-85 -121.5q-27 53 -71 110.5t-111.5 104.5t-161.5 76.5t-221 29.5q-131 0 -246 -43t-200 -123.5 t-134 -195.5t-49 -258zM233 588q0 129 44.5 221t114 151.5t156.5 87t175 27.5q111 0 202 -33.5t156.5 -97t101.5 -153t36 -201.5h-2q0 -123 -36 -214t-101.5 -151.5t-157 -90.5t-199.5 -30q-111 0 -201 36t-154.5 100.5t-99.5 153.5t-35 194zM1362 682q8 68 43 137.5 t96.5 125.5t149.5 92t204 36q92 0 169 -31.5t136.5 -86t96.5 -126t49 -149.5v2h-944z" />
<glyph unicode="&#x178;" horiz-adv-x="1433" d="M-29 1548l674 -895v-659h146v659l671 895h-176l-311 -413q-66 -86 -129.5 -172t-128.5 -175q-66 86 -129.5 171t-128.5 174l-312 415h-176zM410 1544h137v250h-137v-250zM885 1544l139 2v248h-139v-250z" />
<glyph unicode="&#x2c6;" d="M59 1204h215l238 131l238 -131l215 2l-437 289h-32z" />
<glyph unicode="&#x2dc;" d="M166 1352l94 -95q43 49 66.5 60.5t56.5 11.5q27 0 53.5 -5t40.5 -9l41 -12q37 -12 70 -16.5t57 -4.5q53 0 106.5 21.5t110.5 93.5l-94 94q-43 -49 -66.5 -60.5t-56.5 -11.5q-27 0 -53.5 5.5t-40.5 9.5l-41 12q-37 12 -69.5 16t-57.5 4q-53 0 -106.5 -21.5t-110.5 -92.5z " />
<glyph unicode="&#x2000;" horiz-adv-x="946" />
<glyph unicode="&#x2001;" horiz-adv-x="1892" />
<glyph unicode="&#x2002;" horiz-adv-x="946" />
<glyph unicode="&#x2003;" horiz-adv-x="1892" />
<glyph unicode="&#x2004;" horiz-adv-x="630" />
<glyph unicode="&#x2005;" horiz-adv-x="473" />
<glyph unicode="&#x2006;" horiz-adv-x="315" />
<glyph unicode="&#x2007;" horiz-adv-x="315" />
<glyph unicode="&#x2008;" horiz-adv-x="236" />
<glyph unicode="&#x2009;" horiz-adv-x="378" />
<glyph unicode="&#x200a;" horiz-adv-x="105" />
<glyph unicode="&#x2010;" horiz-adv-x="817" d="M-18 666h680v137h-680v-137z" />
<glyph unicode="&#x2011;" horiz-adv-x="817" d="M-18 666h680v137h-680v-137z" />
<glyph unicode="&#x2012;" horiz-adv-x="817" d="M-18 666h680v137h-680v-137z" />
<glyph unicode="&#x2013;" horiz-adv-x="1228" d="M10 489l1209 3v133h-1209v-136z" />
<glyph unicode="&#x2014;" horiz-adv-x="2457" d="M10 489l2437 3v133h-2437v-136z" />
<glyph unicode="&#x2018;" horiz-adv-x="471" d="M88 1548l115 -424l125 2l-84 422h-156z" />
<glyph unicode="&#x2019;" horiz-adv-x="471" d="M143 1124h125l115 424h-156z" />
<glyph unicode="&#x201a;" horiz-adv-x="1206" d="M307 -518h144v1796q0 86 32.5 140.5t86 87t123 46t151.5 13.5q141 0 248 -39q47 -16 83.5 -41t90.5 -82l82 127q-70 55 -118 81.5t-91 43.5q-68 25 -141.5 35t-153.5 10q-215 0 -355 -82q-90 -53 -136 -140t-46 -198v-1798z" />
<glyph unicode="&#x201c;" horiz-adv-x="722" d="M88 1548l115 -424h125l-84 424h-156zM340 1548l115 -424l125 2l-84 422h-156z" />
<glyph unicode="&#x201d;" horiz-adv-x="722" d="M143 1124h125l115 424h-156zM395 1124h125l115 424h-156z" />
<glyph unicode="&#x201e;" horiz-adv-x="722" d="M143 -170h125l115 424h-156zM395 -170h125l115 424h-156z" />
<glyph unicode="&#x2022;" horiz-adv-x="1167" d="M408 743q0 -74 51 -125t125 -51t125 51t51 125q0 37 -13.5 69t-38 55.5t-56 38t-68.5 14.5t-69 -13.5t-55.5 -38t-37.5 -56.5t-14 -69z" />
<glyph unicode="&#x2026;" horiz-adv-x="2457" d="M338 -6h141v266h-141v-266zM1157 -6h141v266h-141v-266zM1976 -6h144v266h-144v-266z" />
<glyph unicode="&#x202f;" horiz-adv-x="378" />
<glyph unicode="&#x2039;" horiz-adv-x="782" d="M119 532l499 -481v185l-319 319l319 319v185l-499 -481v-46z" />
<glyph unicode="&#x203a;" horiz-adv-x="782" d="M164 51l500 481v46l-500 481v-185l319 -319l-319 -319v-185z" />
<glyph unicode="&#x205f;" horiz-adv-x="473" />
<glyph unicode="&#x2122;" horiz-adv-x="2396" d="M18 1415h363v-698h137v700h359v131h-859v-133zM913 717h136v401v197q39 -57 76.5 -112.5t76.5 -110.5l260 -375h94l259 370q41 55 78.5 111.5t78.5 114.5q-2 -49 -2 -99v-96v-401l139 2v829h-135l-258 -370q-51 -72 -102 -146t-105 -149q-51 74 -101 147.5t-103 147.5 l-258 370h-134v-831z" />
<glyph unicode="&#x25fc;" horiz-adv-x="1187" d="M0 0v1188h1188v-1188h-1188z" />
</font>
</defs>
</svg>
